<?xml version="1.0" encoding="UTF-8" standalone="no"?>
<svg
   width="1.79333in"
   height="1.79333in"
   viewBox="0 0 538 538"
   version="1.1"
   id="svg19"
   sodipodi:docname="test.svg"
   inkscape:version="1.1 (c68e22c387, 2021-05-23)"
   xmlns:inkscape="http://www.inkscape.org/namespaces/inkscape"
   xmlns:sodipodi="http://sodipodi.sourceforge.net/DTD/sodipodi-0.dtd"
   xmlns="http://www.w3.org/2000/svg"
   xmlns:svg="http://www.w3.org/2000/svg">
  <defs
     id="defs23" />
  <sodipodi:namedview
     id="namedview21"
     pagecolor="#ffffff"
     bordercolor="#666666"
     borderopacity="1.0"
     inkscape:pageshadow="2"
     inkscape:pageopacity="0.0"
     inkscape:pagecheckerboard="0"
     inkscape:document-units="in"
     showgrid="false"
     inkscape:zoom="4.8327229"
     inkscape:cx="86.183299"
     inkscape:cy="86.183299"
     inkscape:window-width="1920"
     inkscape:window-height="1017"
     inkscape:window-x="1912"
     inkscape:window-y="-7"
     inkscape:window-maximized="1"
     inkscape:current-layer="svg19" />
  <path
     id="Selection #1"
     fill="none"
     stroke="black"
     stroke-width="1"
     d="M 477.00,118.00            C 478.96,124.92 471.28,139.77 469.02,147.00              469.02,147.00 460.69,173.00 460.69,173.00              459.76,175.34 457.87,180.71 456.30,182.35              454.22,184.54 449.84,185.69 447.00,186.67              447.00,186.67 431.00,193.04 431.00,193.04              431.00,193.04 376.00,216.14 376.00,216.14              376.00,216.14 356.04,225.07 356.04,225.07              354.24,226.22 353.21,227.22 352.08,229.04              349.90,232.58 345.33,252.72 344.11,258.00              343.35,261.32 340.11,268.90 345.10,270.19              347.84,270.91 357.83,266.45 361.00,265.34              361.00,265.34 395.00,252.95 395.00,252.95              400.94,250.74 407.62,247.50 414.00,249.00              414.00,249.00 417.00,248.00 417.00,248.00              417.00,248.00 421.00,245.00 421.00,245.00              421.00,245.00 411.38,281.00 411.38,281.00              410.49,284.59 409.77,291.60 407.19,294.28              405.31,296.22 401.56,296.64 399.00,297.08              393.06,298.11 386.96,300.56 381.00,299.00              378.13,302.71 372.33,303.11 368.00,304.28              368.00,304.28 348.00,309.79 348.00,309.79              345.08,310.45 335.10,312.67 333.05,313.93              327.97,317.06 326.79,326.41 326.00,332.00              323.91,346.77 321.68,365.16 323.00,380.00              323.00,380.00 313.00,382.32 313.00,382.32              313.00,382.32 302.00,384.72 302.00,384.72              302.00,384.72 283.00,387.00 283.00,387.00              280.58,378.47 282.95,366.83 283.83,358.00              283.83,358.00 290.54,306.00 290.54,306.00              291.58,300.46 291.92,291.86 294.00,287.00              294.00,287.00 295.00,292.00 295.00,292.00              295.00,292.00 295.93,283.00 295.93,283.00              295.79,279.26 294.79,278.81 295.29,274.00              295.29,274.00 297.68,259.00 297.68,259.00              297.68,259.00 299.08,247.00 299.08,247.00              299.08,247.00 300.83,238.00 300.83,238.00              300.83,238.00 302.93,221.17 302.93,221.17              302.93,221.17 303.62,214.21 303.62,214.21              304.74,211.62 307.66,210.81 310.00,209.68              310.00,209.68 325.00,201.60 325.00,201.60              325.00,201.60 369.00,176.99 369.00,176.99              375.13,173.38 383.99,166.58 391.00,166.00              394.50,159.98 411.27,152.93 418.00,149.70              418.00,149.70 443.00,135.97 443.00,135.97              443.00,135.97 477.00,118.00 477.00,118.00 Z            M 60.00,119.00            C 66.48,120.85 71.15,124.13 77.00,127.22              77.00,127.22 108.00,143.69 108.00,143.69              108.00,143.69 125.00,151.91 125.00,151.91              125.00,151.91 133.00,156.69 133.00,156.69              133.00,156.69 189.00,188.80 189.00,188.80              189.00,188.80 223.00,207.47 223.00,207.47              223.00,207.47 233.01,212.72 233.01,212.72              234.10,214.13 235.13,225.34 235.61,228.00              235.61,228.00 237.30,242.00 237.30,242.00              237.30,242.00 241.57,268.00 241.57,268.00              242.42,273.87 241.32,281.03 245.00,286.00              245.00,286.00 247.82,310.00 247.82,310.00              247.82,310.00 250.16,333.00 250.16,333.00              250.16,333.00 252.95,349.00 252.95,349.00              252.95,349.00 252.95,357.00 252.95,357.00              252.95,357.00 254.82,365.00 254.82,365.00              254.82,365.00 256.00,387.00 256.00,387.00              242.02,387.00 239.97,384.35 227.00,382.43              223.91,381.97 217.99,381.95 215.99,379.30              214.56,377.40 215.03,371.48 215.00,369.00              214.84,355.64 212.26,342.15 210.08,329.00              209.45,325.19 208.64,317.21 205.69,314.72              203.38,312.77 198.04,312.07 195.00,311.27              195.00,311.27 172.00,305.20 172.00,305.20              166.47,304.06 152.47,298.27 148.00,301.00              145.52,299.20 144.10,297.97 141.00,297.26              137.68,296.50 133.20,296.91 130.55,294.42              127.26,291.34 126.64,283.28 125.69,279.01              125.69,279.01 120.92,263.00 120.92,263.00              120.92,263.00 116.00,245.00 116.00,245.00              116.00,245.00 173.00,264.33 173.00,264.33              173.00,264.33 188.00,269.61 188.00,269.61              189.53,269.82 192.00,270.65 193.38,269.61              196.45,268.07 193.83,261.61 193.38,259.00              193.38,259.00 187.88,237.00 187.88,237.00              187.01,233.32 186.57,229.33 183.61,226.65              183.61,226.65 161.00,215.73 161.00,215.73              161.00,215.73 119.00,198.55 119.00,198.55              119.00,198.55 107.00,193.37 107.00,193.37              107.00,193.37 81.51,182.79 81.51,182.79              79.25,180.95 78.26,176.73 77.14,174.00              73.98,166.33 71.30,155.35 67.00,149.00              68.84,146.49 66.77,142.71 65.74,140.00              62.88,132.44 61.09,127.10 60.00,119.00 Z            M 343.00,193.00            C 343.00,193.00 342.00,193.00 342.00,193.00              342.00,193.00 343.00,194.00 343.00,194.00              343.00,194.00 343.00,193.00 343.00,193.00 Z            M 420.00,246.00            C 420.00,246.00 419.00,246.00 419.00,246.00              419.00,246.00 420.00,247.00 420.00,247.00              420.00,247.00 420.00,246.00 420.00,246.00 Z" />
  <path
     id="Selection"
     fill="none"
     stroke="black"
     stroke-width="1"
     d="M 0.00,66.00            C 13.45,68.90 28.31,79.31 39.96,86.74              39.96,86.74 48.04,92.23 48.04,92.23              53.91,95.59 66.86,102.40 70.00,108.00              75.30,108.87 85.43,116.04 90.17,119.29              90.17,119.29 106.00,128.47 106.00,128.47              110.59,131.31 115.23,132.23 118.00,137.00              118.00,137.00 127.00,140.00 127.00,140.00              127.00,140.00 124.00,134.00 124.00,134.00              129.93,134.64 133.13,136.68 136.00,142.00              143.96,141.18 144.16,146.53 151.00,150.00              157.07,153.08 161.68,151.87 165.00,152.72              165.00,152.72 179.00,160.00 179.00,160.00              175.34,151.55 173.50,152.36 176.00,144.00              183.15,145.17 187.27,148.30 192.99,152.38              206.36,161.95 211.29,167.04 221.23,179.99              225.11,185.03 231.62,190.43 232.00,197.00              232.00,197.00 238.00,204.00 238.00,204.00              240.06,197.88 243.27,190.52 249.02,187.01              251.38,185.56 255.05,184.45 257.56,186.18              259.74,187.68 260.22,194.77 260.98,197.61              261.98,201.30 264.64,203.46 265.99,207.00              267.04,209.77 266.92,214.89 266.98,218.00              266.98,218.00 265.74,240.00 265.74,240.00              265.74,240.00 265.74,253.00 265.74,253.00              265.74,253.00 265.00,264.00 265.00,264.00              264.96,272.71 265.60,273.46 263.00,282.00              266.25,283.40 265.72,284.68 266.00,288.00              266.00,288.00 263.00,288.00 263.00,288.00              263.00,288.00 268.00,300.00 268.00,300.00              268.00,300.00 265.00,300.00 265.00,300.00              265.00,300.00 266.00,303.00 266.00,303.00              266.00,303.00 265.00,304.00 265.00,304.00              265.00,304.00 262.00,303.00 262.00,303.00              262.00,303.00 264.12,310.28 264.12,310.28              264.12,310.28 264.12,317.00 264.12,317.00              264.12,317.00 265.73,325.00 265.73,325.00              265.73,325.00 265.73,332.00 265.73,332.00              265.73,332.00 269.00,351.00 269.00,351.00              269.00,351.00 270.10,339.00 270.10,339.00              270.10,339.00 271.87,330.00 271.87,330.00              272.11,325.17 270.71,320.53 275.00,317.00              270.98,307.26 276.41,309.17 275.00,301.00              273.50,304.62 273.12,301.90 270.00,301.00              271.77,294.53 276.87,292.88 271.00,287.00              271.00,287.00 273.25,279.83 273.25,279.83              273.25,279.83 272.75,270.00 272.75,270.00              272.75,270.00 272.75,264.00 272.75,264.00              272.75,264.00 272.02,255.00 272.02,255.00              272.02,255.00 272.02,239.00 272.02,239.00              272.02,239.00 270.23,219.01 270.23,219.01              270.23,219.01 271.23,212.72 271.23,212.72              271.23,212.72 271.23,208.00 271.23,208.00              271.23,208.00 275.75,199.28 275.75,199.28              275.75,199.28 279.00,191.00 279.00,191.00              279.00,191.00 277.00,187.00 277.00,187.00              290.63,181.28 294.89,194.16 300.00,204.00              300.00,204.00 305.60,193.51 305.60,193.51              305.60,193.51 330.28,163.32 330.28,163.32              330.28,163.32 341.00,155.00 341.00,155.00              348.20,149.62 352.69,145.52 362.00,144.00              362.73,152.58 361.35,152.45 358.00,160.00              358.00,160.00 372.00,153.13 372.00,153.13              377.53,151.62 384.47,154.00 392.00,145.00              392.00,145.00 402.13,139.73 402.13,139.73              406.71,136.67 406.79,133.94 413.00,135.00              413.00,135.00 409.00,141.00 409.00,141.00              409.00,141.00 422.00,133.68 422.00,133.68              422.00,133.68 451.17,116.33 451.17,116.33              451.17,116.33 461.00,110.90 461.00,110.90              461.00,110.90 480.17,97.34 480.17,97.34              480.17,97.34 487.00,93.54 487.00,93.54              487.00,93.54 511.00,78.09 511.00,78.09              511.00,78.09 524.00,70.00 524.00,70.00              524.00,70.00 526.00,71.00 526.00,71.00              528.64,67.59 533.90,66.73 538.00,66.00              534.56,74.77 526.06,80.01 520.31,87.09              517.00,91.15 518.04,95.06 505.00,106.00              505.00,106.00 512.00,106.00 512.00,106.00              512.00,106.00 497.00,123.00 497.00,123.00              497.00,123.00 513.00,119.14 513.00,119.14              513.00,119.14 526.00,114.00 526.00,114.00              525.36,117.78 525.06,117.74 522.00,120.00              522.00,120.00 526.00,120.00 526.00,120.00              524.82,124.01 521.97,127.44 519.74,131.00              519.74,131.00 508.16,147.16 508.16,147.16              505.52,149.80 495.86,154.28 492.00,155.00              492.00,155.00 496.00,159.00 496.00,159.00              497.74,166.14 509.34,176.43 502.49,180.90              500.09,182.47 493.32,180.91 488.00,183.00              488.00,183.00 492.00,184.00 492.00,184.00              492.00,184.00 492.00,186.00 492.00,186.00              492.00,186.00 476.00,191.00 476.00,191.00              476.00,191.00 490.28,199.68 490.28,199.68              490.28,199.68 492.00,203.00 492.00,203.00              492.00,203.00 483.00,203.00 483.00,203.00              483.00,203.00 482.00,204.00 482.00,204.00              482.00,204.00 483.00,207.00 483.00,207.00              483.00,207.00 466.00,209.87 466.00,209.87              466.00,209.87 456.00,214.47 456.00,214.47              456.00,214.47 436.00,217.00 436.00,217.00              439.64,217.30 448.88,218.12 451.83,219.53              459.67,223.27 461.27,228.58 466.00,233.00              466.00,233.00 466.00,235.00 466.00,235.00              458.07,239.01 457.74,238.99 449.00,239.00              452.11,241.99 460.41,249.00 461.16,253.00              462.69,261.21 446.77,264.73 441.00,265.00              441.00,265.00 443.00,273.00 443.00,273.00              443.00,273.00 439.00,274.00 439.00,274.00              439.00,274.00 442.00,277.00 442.00,277.00              442.00,277.00 423.00,284.00 423.00,284.00              423.00,284.00 430.00,286.00 430.00,286.00              430.00,286.00 430.00,288.00 430.00,288.00              430.00,288.00 425.00,291.00 425.00,291.00              430.05,296.15 431.92,297.78 432.00,305.00              432.00,305.00 419.96,309.67 419.96,309.67              419.96,309.67 401.00,309.15 401.00,309.15              401.00,309.15 388.00,309.15 388.00,309.15              388.00,309.15 392.59,317.87 392.59,317.87              392.59,317.87 389.73,326.17 389.73,326.17              389.73,326.17 396.95,338.04 396.95,338.04              396.95,338.04 400.00,350.00 400.00,350.00              392.30,352.79 394.31,350.46 386.00,350.00              386.86,354.37 385.36,366.04 382.00,369.00              382.00,369.00 380.64,373.86 380.64,373.86              380.64,373.86 364.00,385.00 364.00,385.00              371.42,389.31 377.73,398.40 381.55,406.00              382.64,408.54 385.35,413.70 381.55,415.58              378.22,417.35 374.50,413.30 371.00,411.82              366.97,410.11 361.34,410.72 357.00,411.00              361.18,421.23 351.70,424.99 343.00,424.53              335.40,424.14 327.17,416.39 321.00,412.00              321.46,413.56 321.45,414.08 322.43,415.54              322.43,415.54 337.04,430.48 337.04,430.48              337.04,430.48 344.78,436.32 344.78,436.32              346.76,438.30 350.84,444.58 348.93,447.40              347.77,449.10 341.20,449.61 339.00,450.00              345.33,455.49 350.05,458.10 351.00,467.00              351.00,467.00 347.00,466.00 347.00,466.00              343.80,472.23 339.24,472.30 333.00,470.88              331.21,470.47 328.91,470.02 327.37,469.02              327.37,469.02 321.39,463.32 321.39,463.32              321.39,463.32 314.55,455.46 314.55,455.46              314.55,455.46 308.18,449.83 308.18,449.83              305.14,446.73 290.30,427.93 287.99,424.00              285.63,419.99 286.45,419.11 285.09,416.17              285.09,416.17 280.00,407.00 280.00,407.00              280.00,407.00 279.00,411.00 279.00,411.00              273.39,405.02 278.45,402.04 274.00,396.00              274.27,388.86 270.63,376.79 268.00,370.00              268.00,370.00 264.18,386.72 264.18,386.72              264.18,386.72 263.28,392.93 263.28,392.93              263.28,392.93 261.76,397.28 261.76,397.28              261.76,397.28 260.00,406.00 260.00,406.00              260.00,406.00 260.00,411.00 260.00,411.00              260.00,411.00 257.00,408.00 257.00,408.00              255.14,411.75 254.72,412.91 251.00,415.00              252.03,422.45 248.73,425.01 244.66,430.58              244.66,430.58 228.80,449.88 228.80,449.88              228.80,449.88 221.92,456.13 221.92,456.13              218.20,460.57 215.13,466.04 209.96,469.07              202.23,473.61 193.82,472.77 189.00,465.00              189.00,465.00 187.00,467.00 187.00,467.00              185.97,458.92 193.51,454.68 199.00,450.00              196.95,449.71 189.11,448.83 188.03,447.24              186.27,444.63 190.39,438.34 192.27,436.52              192.27,436.52 200.55,430.39 200.55,430.39              200.55,430.39 208.00,422.01 208.00,422.01              211.79,418.25 214.40,417.21 216.00,412.00              212.21,415.07 204.35,421.58 200.00,423.12              193.90,425.29 182.29,425.64 179.91,417.98              179.16,415.92 179.74,413.13 179.91,411.00              176.08,410.97 170.52,410.17 167.00,411.51              163.65,412.79 159.23,417.21 155.33,415.39              151.81,413.74 154.96,408.32 156.08,406.00              159.47,399.00 165.92,389.49 173.00,386.00              173.00,386.00 173.00,384.00 173.00,384.00              170.88,383.25 157.64,375.50 156.36,374.02              153.36,370.56 150.34,354.74 151.00,350.00              144.23,350.46 142.76,353.05 141.00,349.00              141.00,349.00 138.00,350.00 138.00,350.00              138.00,350.00 137.00,349.00 137.00,349.00              138.70,342.55 140.15,335.84 146.00,332.00              146.00,332.00 145.00,329.00 145.00,329.00              145.00,329.00 149.00,324.00 149.00,324.00              149.00,324.00 146.00,323.00 146.00,323.00              144.79,317.39 142.32,318.19 149.00,309.00              142.75,309.75 122.67,310.75 117.00,309.66              113.67,309.02 105.85,305.86 105.65,301.87              105.45,298.10 109.65,293.59 112.00,291.00              112.00,291.00 108.00,285.00 108.00,285.00              108.00,285.00 114.00,283.00 114.00,283.00              114.00,283.00 96.00,277.00 96.00,277.00              96.00,277.00 98.00,273.00 98.00,273.00              91.67,270.82 96.82,268.61 93.56,265.89              91.75,264.39 87.47,264.21 83.00,261.64              81.67,260.87 80.23,259.88 79.15,258.79              71.97,251.55 82.44,245.37 88.00,239.00              79.90,238.98 78.33,238.66 71.00,235.00              71.00,235.00 71.00,233.00 71.00,233.00              76.29,228.27 76.71,223.54 85.17,219.53              89.83,217.32 93.65,218.76 102.00,216.00              102.00,216.00 81.01,214.47 81.01,214.47              81.01,214.47 71.96,210.01 71.96,210.01              71.96,210.01 55.00,207.00 55.00,207.00              52.56,202.79 50.52,203.89 46.00,204.00              46.00,204.00 47.02,200.26 47.02,200.26              47.02,200.26 61.00,190.00 61.00,190.00              61.00,190.00 47.59,186.15 47.59,186.15              47.59,186.15 46.00,183.00 46.00,183.00              46.00,183.00 50.00,182.00 50.00,182.00              46.72,182.00 35.98,182.37 33.83,180.23              32.19,178.60 32.20,176.00 33.05,174.00              33.05,174.00 36.32,169.00 36.32,169.00              39.53,163.97 39.63,160.63 45.00,157.00              45.00,157.00 45.00,155.00 45.00,155.00              37.79,153.05 32.51,149.96 27.00,145.00              27.00,145.00 28.00,142.00 28.00,142.00              22.41,139.14 13.34,126.10 12.00,120.00              12.00,120.00 15.00,119.00 15.00,119.00              15.00,119.00 11.00,114.00 11.00,114.00              11.00,114.00 25.04,119.53 25.04,119.53              25.04,119.53 40.00,122.00 40.00,122.00              40.00,122.00 26.00,105.00 26.00,105.00              26.00,105.00 30.00,106.00 30.00,106.00              30.00,106.00 31.00,105.00 31.00,105.00              31.00,105.00 21.04,94.85 21.04,94.85              18.35,90.99 20.36,90.65 15.93,86.05              10.26,80.17 2.02,74.16 0.00,66.00 Z            M 33.00,105.00            C 33.00,105.00 32.00,105.00 32.00,105.00              32.00,105.00 33.00,106.00 33.00,106.00              33.00,106.00 33.00,105.00 33.00,105.00 Z            M 128.00,140.00            C 128.00,140.00 127.00,140.00 127.00,140.00              127.00,140.00 128.00,141.00 128.00,141.00              128.00,141.00 128.00,140.00 128.00,140.00 Z            M 57.00,204.00            C 57.00,204.00 56.00,204.00 56.00,204.00              56.00,204.00 57.00,205.00 57.00,205.00              57.00,205.00 57.00,204.00 57.00,204.00 Z            M 277.00,300.00            C 277.00,300.00 276.00,300.00 276.00,300.00              276.00,300.00 277.00,301.00 277.00,301.00              277.00,301.00 277.00,300.00 277.00,300.00 Z            M 148.00,343.00            C 148.00,343.00 146.00,343.00 146.00,343.00              146.00,343.00 144.00,348.00 144.00,348.00              144.00,348.00 148.00,343.00 148.00,343.00 Z            M 390.00,343.00            C 390.96,346.58 392.79,347.47 396.00,349.00              396.00,349.00 390.00,343.00 390.00,343.00 Z            M 397.00,349.00            C 397.00,349.00 396.00,349.00 396.00,349.00              396.00,349.00 397.00,350.00 397.00,350.00              397.00,350.00 397.00,349.00 397.00,349.00 Z            M 258.00,405.00            C 258.00,405.00 257.00,405.00 257.00,405.00              257.00,405.00 258.00,406.00 258.00,406.00              258.00,406.00 258.00,405.00 258.00,405.00 Z            M 280.00,405.00            C 280.00,405.00 279.00,405.00 279.00,405.00              279.00,405.00 280.00,406.00 280.00,406.00              280.00,406.00 280.00,405.00 280.00,405.00 Z            M 181.00,410.00            C 181.00,410.00 180.00,410.00 180.00,410.00              180.00,410.00 181.00,411.00 181.00,411.00              181.00,411.00 181.00,410.00 181.00,410.00 Z            M 357.00,410.00            C 357.00,410.00 356.00,410.00 356.00,410.00              356.00,410.00 357.00,411.00 357.00,411.00              357.00,411.00 357.00,410.00 357.00,410.00 Z            M 339.00,449.00            C 339.00,449.00 338.00,449.00 338.00,449.00              338.00,449.00 339.00,450.00 339.00,450.00              339.00,450.00 339.00,449.00 339.00,449.00 Z" />
  <path
     style="fill:#636d8d;stroke-width:0.206923;fill-opacity:1"
     d="m 62.346565,150.21748 c -0.42067,-0.22217 -1.012998,-0.72928 -1.316289,-1.12691 -0.303289,-0.39764 -0.644165,-0.66566 -0.757503,-0.59561 -0.343148,0.21207 0.0484,-0.79578 0.590175,-1.51911 0.273322,-0.36492 1.094294,-1.1564 1.824379,-1.75885 0.730088,-0.60244 1.333689,-1.15779 1.341337,-1.2341 0.0077,-0.0763 -0.242159,-0.18812 -0.55513,-0.24845 -0.31297,-0.0603 -1.110378,-0.21524 -1.772015,-0.34423 -0.667227,-0.13008 -1.253128,-0.36522 -1.315584,-0.52797 -0.329499,-0.85867 0.788254,-2.57434 2.482326,-3.8102 0.702012,-0.51214 1.742274,-1.44053 2.311692,-2.06309 0.569418,-0.62256 1.649741,-1.7424 2.400715,-2.48852 1.235771,-1.2278 2.100493,-2.70799 1.773197,-3.03528 -0.06047,-0.0605 -0.744835,0.39659 -1.520813,1.01569 -3.110088,2.48132 -4.330834,3.05734 -6.461631,3.04897 -1.390024,-0.005 -2.736848,-0.56466 -3.251399,-1.34996 -0.417499,-0.63718 -0.494003,-1.9901 -0.119593,-2.1149 0.136569,-0.0455 0.248307,-0.30489 0.248307,-0.57636 0,-0.48878 -0.0166,-0.49256 -1.707112,-0.38834 -2.72613,0.16806 -3.059813,0.24285 -4.622777,1.03617 -2.59336,1.31633 -3.032735,0.52262 -1.429298,-2.58193 1.081598,-2.09417 2.853752,-4.33281 4.157315,-5.25165 1.448151,-1.02075 1.309659,-1.30671 -1.416003,-2.92375 -2.881204,-1.70932 -2.911721,-1.73264 -3.331952,-2.5459 -0.468797,-0.90726 -1.130406,-3.75988 -1.296091,-5.58829 -0.151246,-1.66905 -0.09932,-1.63116 -1.750181,-1.27711 -1.06977,0.22942 -1.249008,0.16897 -1.485777,-0.50111 -0.03267,-0.0925 -0.321049,-0.0686 -0.640844,0.053 -0.57702,0.21938 -0.58034,0.21594 -0.436125,-0.45266 0.326117,-1.51194 1.031762,-2.98103 1.859151,-3.87057 0.693129,-0.7452 0.841896,-1.03163 0.713186,-1.37315 -0.124007,-0.32903 0.0088,-0.64821 0.559339,-1.34388 l 0.721974,-0.91235 -0.574496,-0.23482 c -0.377889,-0.15447 -0.664191,-0.49391 -0.836589,-0.99187 -0.308801,-0.89195 -0.161389,-1.39828 0.794714,-2.729622 0.358609,-0.499357 0.613064,-0.940369 0.565455,-0.98003 -0.04761,-0.03966 -0.784926,0.001 -1.638482,0.09033 -0.853556,0.08934 -3.201222,0.168191 -5.217036,0.175228 -3.166765,0.01105 -3.814042,-0.04293 -4.760412,-0.39701 -1.202487,-0.44991 -2.437913,-1.447416 -2.437913,-1.96842 0,-0.483583 0.577498,-1.529061 1.401889,-2.537928 l 0.720035,-0.881157 -0.543654,-0.821518 c -0.299012,-0.451835 -0.543657,-0.857972 -0.543657,-0.902525 0,-0.04455 0.421417,-0.198995 0.936483,-0.343204 0.515066,-0.14421 0.981242,-0.334621 1.035946,-0.423134 0.05471,-0.08852 -1.228028,-0.600599 -2.850517,-1.137963 -1.622489,-0.537366 -2.980126,-1.002209 -3.01697,-1.032987 -0.03684,-0.03078 0.07193,-0.324602 0.241723,-0.65294 0.300157,-0.580441 0.291982,-0.604384 -0.295128,-0.864265 -0.489089,-0.21649 -0.603836,-0.395518 -0.603836,-0.942098 0,-0.867616 -0.397004,-1.210754 -2.127032,-1.838429 -2.593329,-0.940892 -3.754621,-2.072463 -3.499032,-3.409488 0.05983,-0.312973 0.877938,-1.342802 1.933732,-2.434164 1.006515,-1.040424 1.830028,-1.942828 1.830028,-2.005344 0,-0.06251 -0.7682,-0.150689 -1.707112,-0.195945 -1.674002,-0.08069 -3.8798,-0.779555 -3.8798,-1.229245 0,-0.443446 2.56917,-3.295345 3.516001,-3.902926 0.845598,-0.542618 1.443416,-0.728074 3.156709,-0.97928 2.260068,-0.331377 3.052656,-0.553616 3.052656,-0.855955 0,-0.264954 -0.944987,-0.398893 -3.931531,-0.557238 -2.40421,-0.127471 -2.703269,-0.191247 -4.242615,-0.904764 -1.140208,-0.528507 -2.348777,-0.886355 -3.879801,-1.148783 -2.215193,-0.379695 -2.223719,-0.383409 -2.223719,-0.968487 0,-0.488538 -0.08701,-0.587331 -0.517306,-0.587331 -0.284519,0 -0.517307,0.09639 -0.517307,0.214202 0,0.147656 -0.124345,0.147656 -0.400242,0 -0.220133,-0.117811 -0.732267,-0.214202 -1.138075,-0.214202 -0.566259,0 -0.737833,-0.08466 -0.737833,-0.36407 0,-0.200239 0.191352,-0.483573 0.425226,-0.629629 1.071162,-0.668952 4.351437,-3.196289 4.263132,-3.284593 -0.05433,-0.05433 -1.100517,-0.394269 -2.324871,-0.755428 -2.177968,-0.642457 -2.844274,-1.086977 -1.971442,-1.315227 0.239606,-0.06266 0.435646,-0.232436 0.435646,-0.377284 0,-0.192382 -0.608374,-0.284184 -2.257345,-0.340624 -1.853137,-0.06343 -2.334817,-0.147374 -2.689995,-0.468806 -0.582745,-0.527378 -0.544583,-1.103014 0.145913,-2.200925 0.318209,-0.505963 0.915903,-1.525182 1.328207,-2.26493 0.412305,-0.739749 1.036546,-1.618485 1.387203,-1.952748 0.720593,-0.686903 0.898508,-1.77186 0.290556,-1.77186 -0.544209,0 -3.605223,-1.560957 -4.4569225,-2.272798 C 9.1560429,46.44986 9.0345388,46.229601 9.1208098,45.772372 9.2086491,45.306831 9.1076288,45.136969 8.5206676,44.763256 7.3687577,44.029845 4.2419151,39.599955 4.2419151,38.701421 c 0,-0.11759 0.1341773,-0.213801 0.2981721,-0.213801 0.4390154,0 0.6021557,-0.387381 0.3109232,-0.738294 -0.4317276,-0.5202 -0.1462434,-0.493892 1.4615142,0.134686 1.4387628,0.562506 6.1268604,1.528957 6.7392474,1.389296 0.157366,-0.03589 -0.579891,-1.094529 -1.77206,-2.544531 -1.870938,-2.275571 -2.0052855,-2.496568 -1.6076753,-2.644572 0.249024,-0.09269 0.5247113,-0.07066 0.6470973,0.05173 0.351503,0.351503 0.544307,0.243793 0.544307,-0.304077 0,-0.357179 -0.113503,-0.517306 -0.366683,-0.517306 -0.5692787,0 -3.6651819,-3.268894 -4.1411697,-4.372567 C 6.0774784,28.297133 5.2346058,27.281819 3.7789053,25.838146 1.8370249,23.91231 0.29552543,21.879689 0.56928025,21.605934 0.74463331,21.430581 3.4320195,22.528178 5.3799899,23.57075 c 1.955007,1.046339 4.6052491,2.679159 8.0699851,4.971935 1.138074,0.753117 3.08387,1.971929 4.323989,2.708471 1.240119,0.736542 2.77652,1.836582 3.414224,2.444533 0.637705,0.607952 1.518899,1.235967 1.958211,1.39559 0.874273,0.317665 2.543744,1.286995 4.788164,2.780107 0.796652,0.529978 2.98486,1.831602 4.862683,2.892499 1.877823,1.060896 3.74338,2.239138 4.145684,2.618315 0.434831,0.409837 1.27396,0.869274 2.069226,1.132935 0.735772,0.243935 1.484772,0.570496 1.664445,0.725688 0.468525,0.404689 0.604475,0.351804 0.604475,-0.235139 0,-0.294328 -0.119471,-0.517306 -0.277169,-0.517306 -0.283738,0 -0.853734,-1.0073 -0.67253,-1.188502 0.25249,-0.252489 1.988941,0.862553 2.506662,1.609625 0.49391,0.712712 0.671963,0.820413 1.35632,0.820413 0.655171,0 1.015608,0.193284 2.14129,1.14827 1.703406,1.445102 2.757793,1.912305 4.690677,2.078453 1.346698,0.115761 1.838686,0.290118 4.066839,1.441268 1.394142,0.720269 2.534803,1.212741 2.534803,1.094386 0,-0.118358 -0.332268,-0.915385 -0.738374,-1.771174 -0.609179,-1.283719 -0.714647,-1.696429 -0.602764,-2.35866 0.07459,-0.441475 0.199157,-0.841956 0.276823,-0.889958 0.292868,-0.181001 2.371071,0.713865 3.607459,1.553357 4.228757,2.871275 6.525253,4.951928 9.54063,8.643928 3.369533,4.125626 3.831844,4.769431 4.110068,5.723603 0.149165,0.511559 0.694871,1.404292 1.255026,2.053114 0.9827,1.138259 1.381097,1.393118 1.381097,0.8835 0,-0.420996 1.38662,-3.199732 1.994207,-3.99632 1.124138,-1.473822 3.131171,-2.179064 3.871927,-1.360538 0.188848,0.208675 0.497252,1.146681 0.685342,2.084454 0.248378,1.238358 0.573789,2.083172 1.188897,3.086544 l 0.846918,1.381503 -4.3e-5,2.793456 c -9.3e-5,6.020267 -0.544772,18.49666 -0.862574,19.758085 -0.302657,1.201319 -0.299051,1.247121 0.120104,1.525428 0.572553,0.380163 0.58537,1.27106 0.01828,1.27106 -0.5492,0 -0.51758,0.223882 0.306862,2.172688 0.672056,1.588602 0.683431,1.658146 0.281963,1.723892 -0.334213,0.05473 -0.392155,0.172853 -0.288123,0.587354 0.122709,0.488911 0.09342,0.510762 -0.507625,0.378749 -0.616586,-0.135425 -0.633105,-0.120516 -0.495546,0.447259 0.07826,0.323046 0.232146,0.820143 0.341958,1.104661 0.109814,0.284519 0.281942,1.448459 0.382511,2.586534 0.100569,1.13807 0.270024,3.04694 0.37657,4.24192 0.106545,1.19497 0.385739,3.24351 0.620431,4.55229 0.234692,1.30879 0.427331,2.44945 0.428086,2.53481 8.28e-4,0.0854 0.132685,0.15519 0.29318,0.15519 0.21808,0 0.327681,-0.45747 0.433787,-1.81057 0.07809,-0.99582 0.236413,-2.2296 0.351839,-2.74173 0.115425,-0.51213 0.274174,-1.8685 0.352778,-3.01414 0.114493,-1.66874 0.234044,-2.21097 0.601156,-2.72653 0.418524,-0.58776 0.436721,-0.72401 0.209927,-1.57197 -0.191906,-0.717514 -0.192649,-1.11422 -0.0033,-1.746311 0.134775,-0.44984 0.245046,-1.167671 0.245046,-1.59518 0,-0.667464 0.04385,-0.740892 0.310384,-0.519694 0.261852,0.217318 0.310384,0.176521 0.310384,-0.260913 0,-0.74469 -0.746124,-0.904151 -1.097013,-0.234454 -0.230748,0.440396 -0.309478,0.468217 -0.640351,0.226276 -0.360927,-0.263917 -0.353884,-0.321978 0.162747,-1.3415 0.645638,-1.274106 0.683484,-2.082725 0.130382,-2.785879 -0.390383,-0.496292 -0.394099,-0.566302 -0.0791,-1.490758 0.362005,-1.062428 0.348847,-2.093114 -0.16656,-13.046198 -0.144594,-3.072802 -0.242104,-6.777059 -0.216688,-8.231685 0.04559,-2.609181 0.05687,-2.666267 0.838184,-4.241915 1.435808,-2.895533 1.787878,-3.955623 1.535648,-4.623861 -0.254906,-0.675319 -0.222107,-0.712131 0.806413,-0.905082 1.091482,-0.204762 2.459353,0.455785 3.28421,1.585953 0.36023,0.493564 1.073524,1.727186 1.585097,2.741384 0.698649,1.385081 0.979135,1.771308 1.127035,1.55192 0.108297,-0.160642 0.558284,-0.990439 0.999973,-1.843995 0.523595,-1.011838 2.187009,-3.244182 4.779794,-6.414604 3.8414,-4.697215 4.07606,-4.939147 6.89596,-7.10976 2.91522,-2.243994 4.50725,-3.206441 5.97134,-3.609934 l 0.77596,-0.21385 v 0.992101 c 0,0.691801 -0.21764,1.469675 -0.719,2.569856 -0.39546,0.867763 -0.62669,1.577752 -0.51387,1.577752 0.11284,0 1.23274,-0.515357 2.48869,-1.14524 1.89027,-0.948002 2.57554,-1.181852 3.97899,-1.357829 2.03667,-0.255378 3.07822,-0.685727 4.18092,-1.727478 0.45482,-0.429679 1.52958,-1.134915 2.38837,-1.567187 0.85878,-0.432274 1.9617,-1.120368 2.45092,-1.5291 0.80578,-0.673211 1.68511,-0.982165 1.67343,-0.587959 -0.003,0.08536 -0.18669,0.38798 -0.40925,0.672499 -0.45073,0.576232 -0.53297,1.034613 -0.18561,1.034613 0.268,0 4.22406,-2.222384 7.74496,-4.350871 1.36202,-0.823384 4.0128,-2.381665 5.89063,-3.462848 1.87782,-1.081182 4.62669,-2.826193 6.10859,-3.877802 1.48191,-1.051608 3.62356,-2.468877 4.75922,-3.149485 1.13567,-0.680609 4.3421,-2.694773 7.12539,-4.475921 3.55102,-2.272446 5.17569,-3.201906 5.44655,-3.115937 0.21231,0.06738 0.54229,-0.01432 0.7333,-0.181567 0.50189,-0.439454 1.48394,-0.902315 2.27691,-1.073159 l 0.68808,-0.148247 -0.33458,0.647004 c -0.18402,0.355853 -1.42615,1.784799 -2.7603,3.175436 -1.52398,1.588502 -2.73231,3.064493 -3.25043,3.970452 -0.5042,0.881615 -1.49634,2.103463 -2.55295,3.144024 l -1.72826,1.702002 1.0608,0.06328 1.06079,0.06328 -1.37285,1.55192 c -2.53234,2.862649 -3.24901,3.734096 -3.15125,3.831855 0.17254,0.172542 5.80821,-1.314515 7.48465,-1.974939 0.89409,-0.352223 1.67287,-0.593159 1.73062,-0.535414 0.0577,0.05775 -0.25477,0.435391 -0.69448,0.839214 l -0.79946,0.734224 0.79365,9.94e-4 0.79365,9.93e-4 -0.53152,0.950989 c -0.96438,1.725469 -4.91551,7.122243 -5.57843,7.619464 -0.82286,0.617194 -2.47366,1.437697 -3.54733,1.763149 -0.45523,0.13799 -0.96026,0.293654 -1.12227,0.345925 -0.20893,0.0674 -0.0435,0.350891 0.56903,0.974999 0.47499,0.48398 0.86362,0.96314 0.86362,1.064803 0,0.101664 0.5481,1.122407 1.218,2.268316 1.45257,2.484701 1.60884,3.006711 1.09138,3.645744 -0.32336,0.399327 -0.65888,0.488786 -2.3265,0.620288 -1.07176,0.08452 -2.22799,0.271619 -2.56941,0.415786 l -0.62077,0.262121 0.87942,0.20282 c 0.48368,0.11155 0.87942,0.267458 0.87942,0.346461 0,0.079 -1.14066,0.496047 -2.5348,0.926763 -1.39414,0.430716 -2.60219,0.843901 -2.68454,0.918193 -0.0824,0.07429 0.84879,0.728545 2.06922,1.453898 2.30314,1.36885 2.9432,1.827329 2.9432,2.108232 0,0.09097 -0.62853,0.192931 -1.39673,0.226583 -1.34615,0.05897 -1.39906,0.08143 -1.46125,0.620337 -0.0741,0.642243 -0.0459,0.631504 -2.93586,1.116528 -1.46705,0.246216 -2.71031,0.609905 -3.82807,1.11982 -1.43619,0.655186 -2.07321,0.805006 -4.81095,1.131487 -3.83692,0.457562 -4.11175,0.756788 -1.03461,1.126458 3.21968,0.386794 4.24577,0.976706 6.39337,3.675638 1.19751,1.504932 1.21531,1.442419 -0.6073,2.133406 -0.71385,0.270636 -1.59482,0.414797 -2.5348,0.414797 -0.79239,0 -1.4407,0.06105 -1.4407,0.135671 0,0.07462 0.8846,1.047287 1.96577,2.161488 1.76114,1.814947 1.96576,2.105208 1.96576,2.788543 0,1.131675 -1.02035,2.003349 -3.12232,2.66736 -0.91205,0.288115 -1.97387,0.523848 -2.3596,0.523848 -0.38573,0 -0.74912,0.07732 -0.80753,0.171832 -0.0584,0.09451 0.0249,0.668992 0.18523,1.276626 0.16029,0.607631 0.25108,1.170088 0.20176,1.249898 -0.0493,0.07981 -0.38647,0.204467 -0.74921,0.277014 l -0.65953,0.131907 0.47842,0.509257 0.47842,0.509256 -0.4957,0.185191 c -0.27263,0.101856 -1.56652,0.575717 -2.8753,1.053024 -1.30879,0.477308 -2.46023,0.947668 -2.55876,1.045249 -0.10002,0.09905 0.37984,0.334263 1.08634,0.532495 0.69602,0.195293 1.26549,0.429964 1.26549,0.521495 0,0.09153 -0.37246,0.375751 -0.82769,0.631602 -0.45523,0.255854 -0.82769,0.52289 -0.82769,0.593417 0,0.07053 0.33727,0.44912 0.7495,0.841319 0.84335,0.802388 1.5153,2.092535 1.52211,2.922468 0.004,0.503282 -0.15174,0.614929 -1.70257,1.21959 l -1.70711,0.66559 -5.32826,-0.04546 c -2.93055,-0.02501 -5.32826,0.01781 -5.32826,0.09515 0,0.07734 0.33557,0.779199 0.74571,1.559689 l 0.7457,1.41909 -0.47149,1.31468 -0.4715,1.31468 1.16578,1.88463 c 0.83626,1.35191 1.28798,2.36321 1.59807,3.57771 0.23776,0.9312 0.38859,1.79967 0.33519,1.92993 -0.0534,0.13027 -0.10446,0.0739 -0.11344,-0.12527 -0.009,-0.19916 -0.13003,-0.36211 -0.26899,-0.36211 -0.13896,0 -0.79076,-0.5325 -1.44846,-1.18333 -1.212,-1.19935 -1.41737,-1.1694 -0.96085,0.14017 0.1514,0.43431 0.57449,0.89488 1.1898,1.29521 l 0.95486,0.62122 -0.93115,-0.13556 c -0.51214,-0.0746 -1.31394,-0.18859 -1.78177,-0.25339 l -0.85062,-0.11782 -0.0997,2.07018 c -0.0843,1.75159 -0.19597,2.27269 -0.72537,3.38616 -0.34413,0.72379 -0.68354,1.54877 -0.75424,1.83329 -0.0939,0.37767 -0.85423,0.99205 -2.81705,2.27614 -1.47868,0.96737 -2.69033,1.81867 -2.69257,1.89178 -0.002,0.0731 0.46733,0.49214 1.04347,0.93115 2.03536,1.55096 5.16015,6.2167 5.16015,7.70484 0,1.18893 -0.81322,1.35895 -2.25545,0.47154 -1.34144,-0.8254 -2.10176,-1.01717 -4.48465,-1.13115 l -2.08433,-0.0997 0.39986,0.8082 c 1.00027,2.02171 -0.64347,3.70121 -3.62203,3.70084 -1.66207,-2.1e-4 -3.04909,-0.64115 -5.81102,-2.68524 -1.11542,-0.82552 -2.06733,-1.46166 -2.11535,-1.41363 -0.048,0.048 0.002,0.4109 0.11124,0.8064 0.14516,0.52575 0.99207,1.49621 3.14996,3.60951 1.62328,1.58973 3.40549,3.25409 3.96048,3.69857 1.20208,0.96272 2.19843,2.83142 1.77907,3.33672 -0.37956,0.45734 -1.76982,0.75624 -2.79936,0.60186 -0.57471,-0.0862 -0.91993,-0.0592 -0.91993,0.0719 0,0.11544 0.60879,0.70384 1.35286,1.30754 1.58782,1.28827 2.27457,2.13361 2.69009,3.31132 l 0.30231,0.85684 -0.58354,-0.11671 c -0.48727,-0.0975 -0.64292,-0.0162 -0.94342,0.49252 -0.70651,1.19602 -1.88947,1.46427 -4.13127,0.93683 -1.18027,-0.27768 -1.29542,-0.37141 -4.76256,-3.87656 -4.980274,-5.03487 -9.17296,-10.28708 -9.742298,-12.20425 -0.16919,-0.56972 -0.683345,-1.71651 -1.142571,-2.54842 -0.459223,-0.83191 -0.834953,-1.71061 -0.834953,-1.95267 0,-0.33149 -0.127661,-0.4401 -0.517307,-0.4401 -0.522538,0 -0.691571,0.28172 -0.310384,0.51731 0.113807,0.0703 0.203961,0.3319 0.200342,0.58125 -0.0061,0.41997 -0.02674,0.4268 -0.280316,0.0928 -0.150553,-0.1983 -0.331517,-0.97933 -0.40214,-1.73561 -0.07062,-0.75629 -0.270385,-1.59176 -0.443915,-1.8566 -0.173529,-0.26484 -0.315627,-0.88054 -0.315774,-1.36823 -4.14e-4,-1.47181 -1.497624,-7.04926 -2.058593,-7.66888 -0.144981,-0.16014 -1.035715,3.44373 -1.559175,6.30835 -0.151602,0.82964 -0.470389,2.24498 -0.708415,3.14519 -0.238025,0.90022 -0.440124,1.83137 -0.449109,2.06923 -0.009,0.23786 -0.0633,0.31608 -0.120704,0.17382 -0.0574,-0.14226 -0.329398,-0.25865 -0.604431,-0.25865 -0.507222,0 -0.669648,0.28461 -0.294681,0.51635 0.323401,0.19988 -0.515242,1.64395 -1.358282,2.33886 -0.574573,0.47361 -0.71934,0.71905 -0.616059,1.04445 0.224909,0.70862 -0.254363,1.99321 -1.246454,3.34087 -1.653795,2.24652 -5.024749,6.25154 -6.983078,8.29657 -1.044761,1.09101 -2.454254,2.61734 -3.132207,3.39186 -1.494524,1.70737 -2.764699,2.38351 -4.457732,2.37291 -0.717719,-0.004 -1.420578,-0.15633 -1.902929,-0.41107 z m 19.829099,-27.04675 c -0.06322,-0.54059 -0.172201,-2.19338 -0.242189,-3.67288 -0.06999,-1.4795 -0.259791,-3.27774 -0.421785,-3.9961 -0.161995,-0.71836 -0.294535,-1.88929 -0.294535,-2.60208 0,-0.71278 -0.189846,-2.35027 -0.421878,-3.63888 -0.232033,-1.2886 -0.692651,-4.86654 -1.023595,-7.95098 C 78.783831,92.102964 78.713746,91.600597 78.291858,90.70248 78.02776,90.140267 77.823726,89.063613 77.703661,87.59864 77.602553,86.364973 77.238518,83.679535 76.894693,81.631 76.55087,79.582465 76.033129,76.030364 75.744157,73.737442 75.455186,71.444519 75.144468,69.209754 75.053675,68.771297 L 74.888596,67.974103 67.861932,64.131484 C 63.997268,62.018044 56.319182,57.691303 50.79952,54.516503 45.279857,51.341705 38.715235,47.711296 36.21147,46.448929 c -2.503764,-1.262367 -6.507718,-3.351177 -8.897675,-4.641802 -2.389957,-1.290624 -4.83969,-2.609952 -5.443853,-2.931838 -1.216303,-0.648026 -2.669298,-1.137707 -2.84739,-0.959615 -0.306293,0.306293 0.565078,3.746667 1.769539,6.986549 0.426161,1.146331 0.613703,1.961037 0.538536,2.339447 -0.07957,0.400553 0.06797,0.945983 0.475765,1.758843 0.325105,0.64803 1.125078,2.668082 1.777721,4.489002 0.652642,1.820919 1.388809,3.721293 1.635928,4.223052 l 0.449308,0.912289 5.891828,2.467698 c 3.240506,1.357234 9.018272,3.751512 12.839478,5.320615 3.821208,1.569105 8.616641,3.679605 10.656518,4.689998 3.248362,1.608981 3.755051,1.927003 4.080812,2.56131 0.565604,1.101329 3.024075,11.3932 2.840897,11.892823 -0.27301,0.744634 -1.257175,0.620665 -4.716302,-0.594092 -5.988469,-2.102992 -20.400141,-6.94907 -20.466975,-6.882236 -0.03631,0.03631 0.636904,2.525999 1.496034,5.532635 0.859133,3.006636 1.755168,6.368958 1.991192,7.471831 0.671564,3.138045 1.216501,3.760822 3.616312,4.13288 1.341891,0.208042 2.80368,0.773009 3.055871,1.181063 0.06331,0.102432 0.698155,0.142611 1.410768,0.08928 1.060154,-0.07934 1.747003,0.03483 3.778735,0.628101 1.36569,0.398783 4.485049,1.246351 6.93191,1.883483 2.446861,0.637133 4.847071,1.262525 5.333799,1.389745 1.128496,0.29498 1.804672,1.09544 2.108683,2.49628 0.936381,4.3147 2.071056,13.2155 2.078081,16.3012 0.0019,0.85355 0.06065,1.76516 0.130469,2.02578 0.177192,0.66147 1.031731,1.04328 2.910973,1.30061 0.88671,0.12143 2.822697,0.48745 4.302194,0.81338 2.752182,0.60631 3.592335,0.73067 5.347677,0.79159 l 1.0023,0.0348 z m 12.284543,0.45174 c 1.422593,-0.17588 4.022061,-0.64045 5.776593,-1.03239 1.75453,-0.39194 3.2211,-0.71262 3.25903,-0.71262 0.0379,0 0.069,-1.53905 0.069,-3.42011 0,-5.33659 1.00108,-13.70373 1.90989,-15.96308 0.25835,-0.64227 0.72043,-1.35341 1.02684,-1.58031 0.49833,-0.369 3.54285,-1.237423 11.4444,-3.264396 1.36569,-0.350339 2.89054,-0.862081 3.38856,-1.137208 0.65484,-0.361761 1.22762,-0.500523 2.06922,-0.501293 1.23846,-10e-4 5.61732,-0.856018 6.54148,-1.277094 0.70617,-0.321754 1.2069,-1.320717 1.64117,-3.274141 0.18975,-0.853556 1.05061,-4.186615 1.91303,-7.406796 0.86241,-3.22018 1.50858,-5.914314 1.43593,-5.986962 -0.0726,-0.07265 -0.24227,-0.0219 -0.37695,0.112771 -0.13467,0.134671 -0.41796,0.244857 -0.62953,0.244857 -0.21157,0 -0.33001,0.08844 -0.2632,0.196542 0.22218,0.359497 -0.71187,0.651587 -2.32777,0.727925 -1.61758,0.07642 -3.81642,0.816126 -17.11655,5.758143 -3.46842,1.288787 -3.72034,1.3303 -4.14448,0.682977 -0.32833,-0.50109 -0.30115,-0.701644 0.61183,-4.514024 1.37053,-5.72302 2.05037,-7.818502 2.74815,-8.470623 0.66875,-0.625001 4.28395,-2.243439 16.09678,-7.206136 8.47894,-3.562091 12.9928,-5.40186 13.96728,-5.692803 1.60167,-0.478199 2.70969,-1.194186 3.15121,-2.036262 0.24866,-0.47423 1.3966,-3.655693 2.551,-7.069917 1.15439,-3.414225 2.43851,-7.146239 2.85359,-8.293364 0.77059,-2.129614 1.13299,-4.318332 0.79641,-4.809936 -0.14528,-0.2122 -1.4443,0.38999 -5.75281,2.666846 -3.06084,1.617516 -7.29395,3.894309 -9.40692,5.059543 -2.11297,1.165231 -4.93174,2.636706 -6.26394,3.269945 -2.9079,1.382231 -4.71196,2.454354 -5.82735,3.463108 -0.48906,0.442308 -1.24617,0.862708 -1.85058,1.027568 -0.56259,0.153456 -2.28522,1.041231 -3.82807,1.972834 -3.46134,2.090031 -15.59484,8.894518 -19.58333,10.982359 -1.620564,0.848319 -3.042435,1.65801 -3.159709,1.799315 -0.117273,0.141308 -0.4091,1.883369 -0.648504,3.87125 -0.239403,1.987882 -0.612371,4.638599 -0.828816,5.890481 -0.216447,1.251882 -0.453862,2.834841 -0.527591,3.517686 -0.07373,0.682845 -0.320738,2.405476 -0.54891,3.828069 -0.305623,1.905479 -0.380667,3.056877 -0.285005,4.372819 0.103602,1.425155 0.07155,1.808659 -0.158528,1.896949 -0.373096,0.14317 -0.880062,2.142161 -1.269967,5.007519 -2.470055,18.152189 -3.166056,25.032499 -2.73695,27.056059 0.160281,0.75585 0.185482,0.77399 0.931152,0.67027 0.421527,-0.0586 1.930351,-0.2505 3.352945,-0.42637 z M 47.03063,110.66602 c 0.815877,-1.06155 0.824438,-1.20392 0.07239,-1.20392 -0.507337,0 -0.641386,0.1276 -0.931152,0.88634 -0.408017,1.06838 -0.415025,1.18289 -0.07239,1.18289 0.146356,0 0.565375,-0.38939 0.931152,-0.86531 z"
     id="path99"
     transform="scale(3.125006)" />
  <path
     style="fill:#50537f;fill-opacity:1;stroke-width:0.206923"
     d="m 90.659096,123.06727 c -0.39122,-1.45984 0.378969,-8.88163 2.657307,-25.606684 0.28681,-2.105439 0.521824,-3.889189 0.522254,-3.96389 4.34e-4,-0.0747 0.17921,-0.08916 0.397289,-0.03213 0.345498,0.09035 0.415615,-0.04924 0.545038,-1.085115 0.08169,-0.653843 0.09159,-1.86247 0.02199,-2.685842 -0.08745,-1.034502 -0.0034,-2.255586 0.271925,-3.952132 0.21916,-1.350303 0.540936,-3.572477 0.715059,-4.938167 0.174123,-1.365689 0.449417,-3.227994 0.611765,-4.138453 0.162348,-0.91046 0.459675,-3.098668 0.660726,-4.862684 0.201052,-1.764016 0.460939,-3.331912 0.577527,-3.484213 0.116588,-0.152302 1.055074,-0.700337 2.085523,-1.217856 1.030451,-0.517518 3.547261,-1.868812 5.592901,-3.002875 3.05957,-1.696168 3.78401,-2.021543 4.08391,-1.834254 0.51432,0.321196 0.57711,0.29184 0.57711,-0.269804 0,-0.432199 0.57702,-0.82188 4.39711,-2.969531 2.4184,-1.359626 5.25775,-3.006824 6.30965,-3.66044 1.05189,-0.653615 2.52808,-1.403479 3.28041,-1.666364 0.75233,-0.262885 1.66088,-0.756495 2.01899,-1.096911 0.98362,-0.935018 2.85838,-2.058537 5.63347,-3.37608 1.37528,-0.65295 3.88967,-1.953046 5.58752,-2.889103 3.31911,-1.829874 15.005,-8.054044 15.12149,-8.054044 0.30351,0 -0.0715,1.94588 -0.73775,3.82807 -2.0297,5.734019 -2.55562,7.267732 -3.65416,10.656518 -1.43245,4.418853 -1.89875,5.388704 -2.81369,5.852207 -0.37973,0.192367 -1.94747,0.825772 -3.48387,1.407568 -3.09717,1.172815 -20.07564,8.277884 -24.93418,10.434341 -1.70712,0.757697 -3.35964,1.619742 -3.67229,1.915651 -0.31264,0.29591 -0.75549,1.037949 -0.9841,1.648978 -0.62519,1.670969 -2.68937,10.252592 -2.68937,11.180788 0,1.130718 0.53474,1.584634 1.70204,1.444788 0.48647,-0.05828 4.84189,-1.570188 9.67871,-3.359794 8.1932,-3.031456 8.91442,-3.26117 10.55305,-3.361215 0.96737,-0.05906 2.02333,-0.242337 2.34658,-0.407279 0.54525,-0.278214 0.57965,-0.272631 0.47581,0.0772 -0.38033,1.28129 -2.6446,9.937362 -2.91326,11.137077 -0.50071,2.235984 -0.91457,3.181693 -1.53157,3.499812 -0.93765,0.483442 -6.03184,1.419376 -7.00186,1.286422 -0.48923,-0.06706 -0.93159,-0.03035 -1.00172,0.08311 -0.24943,0.403582 -1.4855,0.897534 -3.61703,1.445413 -7.37585,1.895861 -11.11877,2.9439 -11.67602,3.269347 -1.32471,0.77367 -1.88284,2.48313 -2.5796,7.90086 -0.59345,4.61439 -0.91195,9.01774 -0.81409,11.25509 l 0.0849,1.94212 -3.42279,0.74517 c -2.605997,0.56735 -7.738374,1.36989 -8.760672,1.36989 -0.05351,0 -0.153444,-0.20951 -0.222067,-0.46557 z"
     id="path1323"
     transform="scale(3.125006)" />
  <path
     style="fill:#50537f;fill-opacity:1;stroke-width:0.206923"
     d="m 78.837544,123.39678 c -0.227615,-0.0484 -1.438113,-0.31632 -2.689995,-0.59529 -1.251882,-0.27897 -2.974514,-0.60277 -3.82807,-0.71955 -2.300403,-0.31473 -2.826698,-0.53303 -3.087288,-1.28055 -0.12291,-0.35259 -0.223475,-1.60855 -0.223475,-2.79103 0,-1.18248 -0.09949,-3.05417 -0.221084,-4.15931 -0.341783,-3.10632 -1.61815,-10.79365 -1.973126,-11.88379 -0.398819,-1.22477 -1.194966,-1.90552 -2.604642,-2.227104 -2.007609,-0.457993 -9.758302,-2.511078 -11.858424,-3.141186 -1.178535,-0.353602 -2.692712,-0.64988 -3.517686,-0.688306 -0.986676,-0.04596 -1.811289,-0.231954 -2.586533,-0.58341 -0.625942,-0.28377 -1.668685,-0.577763 -2.31721,-0.653321 -1.976254,-0.230247 -2.593428,-0.991594 -3.153148,-3.88972 -0.159022,-0.823391 -0.889134,-3.592166 -1.622469,-6.152834 -0.733337,-2.560668 -1.394035,-4.909394 -1.468218,-5.219391 -0.134236,-0.560945 -0.08832,-0.547784 9.644804,2.764504 13.006715,4.426324 13.309102,4.524114 13.989536,4.524114 0.752083,0 1.273597,-0.576851 1.273597,-1.408734 0,-0.628964 -2.450745,-10.780808 -2.856907,-11.834318 -0.109692,-0.284519 -0.375228,-0.67557 -0.590082,-0.869003 C 58.34461,71.866045 51.280325,68.62288 43.971071,65.621328 39.817098,63.915494 34.090513,61.543446 31.245326,60.350109 l -5.173067,-2.169703 -0.546264,-1.207371 c -0.300444,-0.664054 -0.983956,-2.464426 -1.518913,-4.000827 -0.534958,-1.536401 -1.24357,-3.36546 -1.574694,-4.064576 -0.331125,-0.699115 -0.602045,-1.618604 -0.602045,-2.043308 0,-0.424704 -0.360267,-1.761562 -0.800593,-2.970796 -0.847246,-2.326723 -1.597497,-5.146019 -1.41736,-5.326156 0.136362,-0.136362 0.952756,0.277385 8.478059,4.296655 3.386154,1.808548 7.529781,3.961779 9.20806,4.784958 1.678278,0.82318 7.474387,4.047022 12.880243,7.164094 5.405855,3.117073 12.948187,7.368558 16.760737,9.447746 3.812551,2.079189 7.081145,3.914487 7.263545,4.078444 0.238712,0.214575 0.46175,1.306783 0.796009,3.898 0.255407,1.979942 0.786015,5.64843 1.17913,8.152195 0.393116,2.503764 0.840493,5.772955 0.994173,7.264865 0.165697,1.60859 0.418998,2.982489 0.622382,3.375791 0.35504,0.686571 0.787705,3.839456 1.56394,11.39661 0.239641,2.33305 0.616162,5.25919 0.836715,6.50252 0.220553,1.24334 0.402109,2.91941 0.40346,3.72461 0.0014,0.8052 0.142321,1.97614 0.31327,2.60208 0.251335,0.92028 0.689158,5.71361 0.713486,7.81133 0.005,0.4322 -0.07988,0.46385 -1.184404,0.44157 -0.654393,-0.0132 -1.376036,-0.0636 -1.603651,-0.11206 z"
     id="path1584"
     transform="scale(3.125006)" />
</svg>
