<?xml version="1.0" encoding="UTF-8" standalone="no"?>
<svg
   width="1.79333in"
   height="1.79333in"
   viewBox="0 0 538 538"
   version="1.1"
   id="svg19"
   sodipodi:docname="test gap.svg"
   inkscape:version="1.1 (c68e22c387, 2021-05-23)"
   xmlns:inkscape="http://www.inkscape.org/namespaces/inkscape"
   xmlns:sodipodi="http://sodipodi.sourceforge.net/DTD/sodipodi-0.dtd"
   xmlns="http://www.w3.org/2000/svg"
   xmlns:svg="http://www.w3.org/2000/svg">
  <defs
     id="defs23" />
  <sodipodi:namedview
     id="namedview21"
     pagecolor="#ffffff"
     bordercolor="#666666"
     borderopacity="1.0"
     inkscape:pageshadow="2"
     inkscape:pageopacity="0.0"
     inkscape:pagecheckerboard="0"
     inkscape:document-units="in"
     showgrid="false"
     inkscape:zoom="3.4172511"
     inkscape:cx="60.721321"
     inkscape:cy="80.912989"
     inkscape:window-width="1920"
     inkscape:window-height="1017"
     inkscape:window-x="1912"
     inkscape:window-y="-7"
     inkscape:window-maximized="1"
     inkscape:current-layer="svg19" />
  <path
     id="Selection #1"
     fill="none"
     stroke="#000000"
     stroke-width="1"
     d="m 462.90024,70.69669 c 1.8271,6.45078 -5.33215,20.29387 -7.43891,27.03363 0,0 -7.76518,24.23705 -7.76518,24.23705 -0.86694,2.18133 -2.62878,7.18721 -4.09233,8.71601 -1.93896,2.04151 -6.02197,3.11353 -8.66941,4.02708 0,0 -14.9151,5.93808 -14.9151,5.93808 0,0 -51.27068,21.53368 -51.27068,21.53368 0,0 -18.6066,8.3245 -18.6066,8.3245 -1.67795,1.07202 -2.63811,2.00421 -3.69149,3.70081 -2.03218,3.29997 -6.29231,22.07436 -7.42958,26.99634 -0.70847,3.09489 -3.72878,10.16092 0.92287,11.36345 2.55421,0.67118 11.86683,-3.48641 14.82189,-4.52114 0,0 31.6946,-11.54989 31.6946,-11.54989 5.53723,-2.06015 11.76429,-5.08046 17.71169,-3.68217 0,0 2.79658,-0.93219 2.79658,-0.93219 0,0 3.72878,-2.79658 3.72878,-2.79658 0,0 -8.96771,33.55899 -8.96771,33.55899 -0.82965,3.34657 -1.50083,9.88126 -3.90589,12.37954 -1.75253,1.80845 -5.24826,2.19997 -7.63467,2.61014 -5.53724,0.96016 -11.22362,3.24403 -16.7795,1.78981 -2.6754,3.45844 -8.08212,3.83132 -12.11852,4.92199 0,0 -18.64389,5.13639 -18.64389,5.13639 -2.722,0.61524 -12.0253,2.68472 -13.9363,3.85928 -4.73555,2.91777 -5.83554,11.63378 -6.57197,16.84475 -1.94828,13.76851 -4.02708,30.91156 -2.79658,44.74532 0,0 -9.32194,2.16269 -9.32194,2.16269 0,0 -10.25414,2.23727 -10.25414,2.23727 0,0 -17.71169,2.1254 -17.71169,2.1254 -2.25591,-7.95162 -0.0466,-18.80236 0.77372,-27.03363 0,0 6.25503,-48.4741 6.25503,-48.4741 0.96948,-5.16435 1.28642,-13.18122 3.22539,-17.71169 0,0 0.93219,4.66097 0.93219,4.66097 0,0 0.86694,-8.38974 0.86694,-8.38974 -0.1305,-3.48641 -1.0627,-3.9059 -0.5966,-8.38975 0,0 2.22794,-13.98291 2.22794,-13.98291 0,0 1.30507,-11.18633 1.30507,-11.18633 0,0 1.63134,-8.38975 1.63134,-8.38975 0,0 1.95761,-15.68883 1.95761,-15.68883 0,0 0.64322,-6.48807 0.64322,-6.48807 1.04405,-2.41438 3.76606,-3.16946 5.94739,-4.22284 0,0 13.98292,-7.53213 13.98292,-7.53213 0,0 41.01654,-22.9413 41.01654,-22.9413 5.71435,-3.36522 13.97359,-9.70414 20.50827,-10.24481 3.26268,-5.61181 18.89558,-12.18378 25.16924,-15.19477 0,0 23.30486,-12.79902 23.30486,-12.79902 0,0 31.6946,-16.75153 31.6946,-16.75153 z M 74.175274,71.62888 c 6.040618,1.72456 10.393966,4.78216 15.847296,7.66264 0,0 28.89802,15.35324 28.89802,15.35324 0,0 15.8473,7.66263 15.8473,7.66263 0,0 7.45756,4.45589 7.45756,4.45589 0,0 52.20287,29.93276 52.20287,29.93276 0,0 31.6946,17.40406 31.6946,17.40406 0,0 9.33127,4.89402 9.33127,4.89402 1.01609,1.31439 1.97625,11.76429 2.4237,14.24393 0,0 1.57541,13.05071 1.57541,13.05071 0,0 3.98047,24.23705 3.98047,24.23705 0.79236,5.47198 -0.23305,12.14649 3.19742,16.7795 0,0 2.62879,22.37266 2.62879,22.37266 0,0 2.18134,21.44046 2.18134,21.44046 0,0 2.60082,14.91511 2.60082,14.91511 0,0 0,7.45755 0,7.45755 0,0 1.7432,7.45756 1.7432,7.45756 0,0 1.09999,20.50827 1.09999,20.50827 -13.03207,0 -14.94307,-2.47032 -27.03363,-4.26013 -2.88048,-0.42881 -8.39907,-0.44745 -10.26346,-2.91777 -1.33304,-1.77117 -0.89491,-7.28976 -0.92287,-9.6016 -0.14915,-12.45411 -2.55421,-25.02941 -4.5864,-37.28776 -0.58728,-3.55166 -1.34236,-10.99057 -4.09233,-13.31174 -2.15337,-1.81777 -7.13128,-2.47031 -9.96515,-3.21607 0,0 -21.44047,-5.65841 -21.44047,-5.65841 -5.15503,-1.06271 -18.20575,-6.46011 -22.37266,-3.91522 -2.31184,-1.67795 -3.63556,-2.82455 -6.52536,-3.48641 -3.09488,-0.70846 -7.27111,-0.32626 -9.74143,-2.64743 -3.06692,-2.87116 -3.64488,-10.38464 -4.53046,-14.36511 0,0 -4.44657,-14.92443 -4.44657,-14.92443 0,0 -4.58639,-16.77949 -4.58639,-16.77949 0,0 53.13506,18.01931 53.13506,18.01931 0,0 13.98292,4.92199 13.98292,4.92199 1.42625,0.19576 3.72877,0.96948 5.0152,0 2.86184,-1.43558 0.41949,-7.45756 0,-9.89058 0,0 -5.12707,-20.50828 -5.12707,-20.50828 -0.81101,-3.43047 -1.22117,-7.14993 -3.98047,-9.64821 0,0 -21.07691,-10.17956 -21.07691,-10.17956 0,0 -39.15215,-16.01509 -39.15215,-16.01509 0,0 -11.18633,-4.82877 -11.18633,-4.82877 0,0 -23.76163,-9.86261 -23.76163,-9.86261 -2.10676,-1.71524 -3.02963,-5.6491 -4.07369,-8.19399 -2.94573,-7.14993 -5.44401,-17.38542 -9.452447,-23.30485 1.715237,-2.33981 -0.214405,-5.8635 -1.174565,-8.38975 -2.666075,-7.04739 -4.334702,-12.0253 -5.350794,-19.57608 z m 263.810946,68.98237 c 0,0 -0.93219,0 -0.93219,0 0,0 0.93219,0.93219 0.93219,0.93219 0,0 0,-0.93219 0,-0.93219 z m 71.77895,49.40629 c 0,0 -0.93219,0 -0.93219,0 0,0 0.93219,0.9322 0.93219,0.9322 0,0 0,-0.9322 0,-0.9322 z" />
  <path
     id="Selection"
     fill="none"
     stroke="#000000"
     stroke-width="1"
     d="M 18.243624,22.222592 C 30.781636,24.925955 44.634041,34.6301 55.494103,41.5563 c 0,0 7.532129,5.11774 7.532129,5.11774 5.471979,3.13218 17.543894,9.48042 20.470988,14.70071 4.94062,0.81101 14.38375,7.49484 18.80235,10.52447 0,0 14.75664,8.55754 14.75664,8.55754 4.27877,2.64743 8.60415,3.50505 11.18633,7.95162 0,0 8.38974,2.79658 8.38974,2.79658 0,0 -2.79658,-5.59317 -2.79658,-5.59317 5.52791,0.59661 8.51093,2.49829 11.18633,7.45756 7.42027,-0.7644 7.6067,4.22284 13.98291,7.45755 5.65842,2.87116 9.95584,1.7432 13.05072,2.53557 0,0 13.05072,6.78637 13.05072,6.78637 -3.41183,-7.87704 -5.12707,-7.12196 -2.79658,-14.9151 6.66519,1.09066 10.50583,4.00843 15.83798,7.81178 12.46343,8.9211 17.05915,13.66597 26.32516,25.73788 3.61691,4.69826 9.6855,9.73211 10.03973,15.85663 0,0 5.59316,6.52536 5.59316,6.52536 1.92032,-5.70503 4.91267,-12.56598 10.27278,-15.83798 2.19998,-1.35168 5.62114,-2.38642 7.96094,-0.77372 2.03219,1.39829 2.47964,8.00754 3.18811,10.65498 0.93219,3.43979 3.41183,5.45333 4.67029,8.7533 0.9788,2.58218 0.86694,7.35501 0.92287,10.25413 0,0 -1.15592,20.50828 -1.15592,20.50828 0,0 0,12.11852 0,12.11852 0,0 -0.68982,10.25414 -0.68982,10.25414 -0.0373,8.11941 0.55931,8.81855 -1.86439,16.77949 3.02963,1.30507 2.53557,2.49828 2.79658,5.59317 0,0 -2.79658,0 -2.79658,0 0,0 4.66097,11.18633 4.66097,11.18633 0,0 -2.79658,0 -2.79658,0 0,0 0.93219,2.79658 0.93219,2.79658 0,0 -0.93219,0.93219 -0.93219,0.93219 0,0 -2.79659,-0.93219 -2.79659,-0.93219 0,0 1.97626,6.78637 1.97626,6.78637 0,0 0,6.26435 0,6.26435 0,0 1.50083,7.45755 1.50083,7.45755 0,0 0,6.52536 0,6.52536 0,0 3.04827,17.71169 3.04827,17.71169 0,0 1.02542,-11.18633 1.02542,-11.18633 0,0 1.64998,-8.38975 1.64998,-8.38975 0.22373,-4.5025 -1.08134,-8.82788 2.91777,-12.11852 -3.74742,-9.07957 1.31439,-7.29908 0,-14.91511 -1.39829,3.37454 -1.75253,0.83897 -4.66097,0 1.64998,-6.0313 6.40417,-7.56942 0.93219,-13.05072 0,0 2.09744,-6.68383 2.09744,-6.68383 0,0 -0.4661,-9.16347 -0.4661,-9.16347 0,0 0,-5.59316 0,-5.59316 0,0 -0.6805,-8.38975 -0.6805,-8.38975 0,0 0,-14.91511 0,-14.91511 0,0 -1.66863,-18.63456 -1.66863,-18.63456 0,0 0.9322,-5.8635 0.9322,-5.8635 0,0 0,-4.39996 0,-4.39996 0,0 4.21351,-8.12873 4.21351,-8.12873 0,0 3.02964,-7.71857 3.02964,-7.71857 0,0 -1.86439,-3.72877 -1.86439,-3.72877 12.7058,-5.33216 16.67695,6.67451 21.44046,15.8473 0,0 5.22029,-9.77872 5.22029,-9.77872 0,0 23.00655,-28.14294 23.00655,-28.14294 0,0 9.99312,-7.75586 9.99312,-7.75586 6.7118,-5.0152 10.89735,-8.8372 19.57608,-10.25413 0.6805,7.99822 -0.60593,7.87704 -3.72878,14.9151 0,0 13.05072,-6.40417 13.05072,-6.40417 5.15504,-1.40761 11.62446,0.81101 18.64389,-7.57874 0,0 9.44312,-4.91266 9.44312,-4.91266 4.26945,-2.85252 4.34403,-5.39741 10.13295,-4.40928 0,0 -3.72877,5.59316 -3.72877,5.59316 0,0 12.11852,-6.82366 12.11852,-6.82366 0,0 27.1921,-16.17357 27.1921,-16.17357 0,0 9.16347,-5.06181 9.16347,-5.06181 0,0 17.87017,-12.64055 17.87017,-12.64055 0,0 6.36688,-3.54234 6.36688,-3.54234 0,0 22.37266,-14.4024 22.37266,-14.4024 0,0 12.11853,-7.541451 12.11853,-7.541451 0,0 1.86438,0.932194 1.86438,0.932194 2.461,-3.178782 7.36434,-3.980469 11.18633,-4.660971 -3.20674,8.175338 -11.13039,13.060038 -16.49051,19.659978 -3.08556,3.78471 -2.11608,7.42958 -14.27189,17.62779 0,0 6.52536,0 6.52536,0 0,0 -13.98292,15.8473 -13.98292,15.8473 0,0 14.91511,-3.59827 14.91511,-3.59827 0,0 12.11852,-4.79148 12.11852,-4.79148 -0.5966,3.5237 -0.87626,3.48641 -3.72877,5.59317 0,0 3.72877,0 3.72877,0 -1.09999,3.7381 -3.75674,6.93552 -5.83553,10.25413 0,0 -10.79481,15.06426 -10.79481,15.06426 -2.46099,2.46099 -11.46599,6.63722 -15.06426,7.3084 0,0 3.72878,3.72878 3.72878,3.72878 1.62202,6.65587 12.43547,16.24814 6.04994,20.41505 -2.23727,1.46355 -8.54822,0.009 -13.50749,1.95761 0,0 3.72877,0.93219 3.72877,0.93219 0,0 0,1.86439 0,1.86439 0,0 -14.9151,4.66097 -14.9151,4.66097 0,0 13.31173,8.09145 13.31173,8.09145 0,0 1.60337,3.09488 1.60337,3.09488 0,0 -8.38975,0 -8.38975,0 0,0 -0.93219,0.9322 -0.93219,0.9322 0,0 0.93219,2.79658 0.93219,2.79658 0,0 -15.8473,2.6754 -15.8473,2.6754 0,0 -9.32194,4.28809 -9.32194,4.28809 0,0 -18.64388,2.35845 -18.64388,2.35845 3.39319,0.27966 12.00666,1.04406 14.75663,2.35845 7.3084,3.48641 8.79992,8.43636 13.20919,12.55666 0,0 0,1.86439 0,1.86439 -7.3923,3.73809 -7.69992,3.71945 -15.8473,3.72877 2.89913,2.78726 10.63634,9.32194 11.33548,13.05072 1.42626,7.65331 -13.41427,10.93464 -18.79303,11.18633 0,0 1.86439,7.45755 1.86439,7.45755 0,0 -3.72878,0.9322 -3.72878,0.9322 0,0 2.79658,2.79658 2.79658,2.79658 0,0 -17.71169,6.52536 -17.71169,6.52536 0,0 6.52536,1.86439 6.52536,1.86439 0,0 0,1.86439 0,1.86439 0,0 -4.66097,2.79658 -4.66097,2.79658 4.70758,4.8008 6.45079,6.32027 6.52536,13.05072 0,0 -11.22362,4.35334 -11.22362,4.35334 0,0 -17.6744,-0.48474 -17.6744,-0.48474 0,0 -12.11852,0 -12.11852,0 0,0 4.27877,8.12874 4.27877,8.12874 0,0 -2.66607,7.73721 -2.66607,7.73721 0,0 6.73044,11.06514 6.73044,11.06514 0,0 2.84319,11.14904 2.84319,11.14904 -7.1779,2.60083 -5.30419,0.42881 -13.05072,0 0.80169,4.07369 -0.5966,14.9524 -3.72878,17.71169 0,0 -1.26778,4.53047 -1.26778,4.53047 0,0 -15.51171,10.38464 -15.51171,10.38464 6.91688,4.01776 12.79903,12.4914 16.36001,19.57608 1.01609,2.36777 3.54233,7.17789 0,8.93042 -3.10421,1.64998 -6.57197,-2.12541 -9.83465,-3.50505 -3.75674,-1.59405 -9.005,-1.02542 -13.05072,-0.7644 3.89657,9.53634 -4.94063,13.04139 -13.05072,12.61259 -7.08467,-0.36356 -14.75663,-7.58807 -20.50827,-11.6804 0.42881,1.45423 0.41949,1.93897 1.33304,3.29997 0,0 13.61935,13.92698 13.61935,13.92698 0,0 7.21519,5.44401 7.21519,5.44401 1.84574,1.84575 5.64909,7.69993 3.8686,10.32872 -1.08134,1.58473 -7.20586,2.06014 -9.25668,2.4237 5.90078,5.11775 10.30074,7.55077 11.18633,15.8473 0,0 -3.72878,-0.93219 -3.72878,-0.93219 -2.98302,5.80757 -7.23383,5.87282 -13.05072,4.5491 -1.66863,-0.3822 -3.81267,-0.80168 -5.24825,-1.73388 0,0 -5.57452,-5.3135 -5.57452,-5.3135 0,0 -6.37621,-7.32705 -6.37621,-7.32705 0,0 -5.93808,-5.24825 -5.93808,-5.24825 -2.83387,-2.8898 -16.66763,-20.41505 -18.821,-24.07858 -2.19998,-3.7381 -1.43558,-4.55843 -2.70336,-7.29908 0,0 -4.74487,-8.54822 -4.74487,-8.54822 0,0 -0.93219,3.72878 -0.93219,3.72878 -5.22961,-5.57452 -0.51271,-8.35246 -4.66098,-13.98291 0.2517,-6.65587 -3.14149,-17.90745 -5.59316,-24.23705 0,0 -3.56098,15.58628 -3.56098,15.58628 0,0 -0.83898,5.78893 -0.83898,5.78893 0,0 -1.41693,4.05504 -1.41693,4.05504 0,0 -1.64066,8.12874 -1.64066,8.12874 0,0 0,4.66097 0,4.66097 0,0 -2.79659,-2.79658 -2.79659,-2.79658 -1.73388,3.49572 -2.1254,4.57707 -5.59316,6.52535 0.96016,6.94485 -2.11608,9.33127 -5.91011,14.52359 0,0 -14.7846,17.99135 -14.7846,17.99135 0,0 -6.4135,5.82621 -6.4135,5.82621 -3.46776,4.13894 -6.3296,9.23804 -11.14904,12.06259 -7.20586,4.23216 -15.04561,3.44912 -19.53879,-3.79403 0,0 -1.86439,1.86439 -1.86439,1.86439 -0.96016,-7.53213 6.06859,-11.48463 11.18633,-15.8473 -1.911,-0.27034 -9.2194,-1.09067 -10.22617,-2.57286 -1.64066,-2.43302 2.19998,-8.29652 3.95251,-9.99312 0,0 7.71856,-5.71435 7.71856,-5.71435 0,0 6.94485,-7.81178 6.94485,-7.81178 3.53302,-3.50505 5.96604,-4.47454 7.45755,-9.33127 -3.53301,2.86184 -10.86006,8.93042 -14.9151,10.366 -5.68639,2.02286 -16.50916,2.34913 -18.72778,-4.79148 -0.69915,-1.92032 -0.15848,-4.52114 0,-6.50671 -3.57031,-0.028 -8.75331,-0.77372 -12.03463,0.47542 -3.12285,1.19321 -7.24315,5.3135 -10.87871,3.61691 -3.28132,-1.53812 -0.34491,-6.59061 0.69915,-8.7533 3.16014,-6.52536 9.17279,-15.39053 15.77272,-18.64389 0,0 0,-1.86438 0,-1.86438 -1.97625,-0.69915 -14.3185,-7.92365 -15.51171,-9.3033 -2.79658,-3.22539 -5.61181,-17.97271 -4.99656,-22.39131 -6.31095,0.42881 -7.68128,2.8432 -9.32194,-0.93219 0,0 -2.79658,0.93219 -2.79658,0.93219 0,0 -0.9322,-0.93219 -0.9322,-0.93219 1.58473,-6.01265 2.93642,-12.26768 8.38975,-15.8473 0,0 -0.93219,-2.79658 -0.93219,-2.79658 0,0 3.72877,-4.66097 3.72877,-4.66097 0,0 -2.79658,-0.9322 -2.79658,-0.9322 -1.12795,-5.22961 -3.43047,-4.48385 2.79658,-13.05072 -5.82621,0.69915 -24.54467,1.63134 -29.83021,0.61525 -3.10421,-0.5966 -10.39396,-3.54234 -10.5804,-7.26179 -0.18644,-3.51437 3.72877,-7.71857 5.91943,-10.13295 0,0 -3.72878,-5.59317 -3.72878,-5.59317 0,0 5.59317,-1.86438 5.59317,-1.86438 0,0 -16.7795,-5.59317 -16.7795,-5.59317 0,0 1.86439,-3.72878 1.86439,-3.72878 -5.90079,-2.03218 -1.09999,-4.09233 -4.13894,-6.6279 -1.68727,-1.39829 -5.67706,-1.56608 -9.84397,-3.96182 -1.23982,-0.71779 -2.58218,-1.64066 -3.58895,-2.65676 -6.69315,-6.74908 3.06692,-12.51004 8.24992,-18.44812 -7.55077,-0.0186 -9.01432,-0.31694 -15.8473,-3.72877 0,0 0,-1.86439 0,-1.86439 4.93131,-4.40928 5.32283,-8.81856 13.20919,-12.55666 4.34403,-2.06015 7.90501,-0.71779 15.68883,-3.29064 0,0 -19.56676,-1.42626 -19.56676,-1.42626 0,0 -8.43635,-4.15759 -8.43635,-4.15759 0,0 -15.810017,-2.8059 -15.810017,-2.8059 -2.274554,-3.92454 -4.17623,-2.89913 -8.389747,-2.79658 0,0 0.950838,-3.48641 0.950838,-3.48641 0,0 13.032074,-9.56431 13.032074,-9.56431 0,0 -12.500724,-3.58895 -12.500724,-3.58895 0,0 -1.482188,-2.93641 -1.482188,-2.93641 0,0 3.728776,-0.9322 3.728776,-0.9322 -3.057597,0 -13.069362,0.34492 -15.073579,-1.64998 -1.528799,-1.51948 -1.519477,-3.94318 -0.727112,-5.80757 0,0 3.048275,-4.66097 3.048275,-4.66097 2.992343,-4.68894 3.085563,-7.80246 8.091445,-11.18633 0,0 0,-1.86439 0,-1.86439 -6.721119,-1.81778 -11.643105,-4.69826 -16.779494,-9.32194 0,0 0.932194,-2.79658 0.932194,-2.79658 -5.210966,-2.66608 -13.665967,-14.82189 -14.915107,-20.50827 0,0 2.796583,-0.9322 2.796583,-0.9322 0,0 -3.728777,-4.66097 -3.728777,-4.66097 0,0 13.088006,5.15504 13.088006,5.15504 0,0 13.945625,2.30252 13.945625,2.30252 0,0 -13.050719,-15.84731 -13.050719,-15.84731 0,0 3.728777,0.9322 3.728777,0.9322 0,0 0.932194,-0.9322 0.932194,-0.9322 0,0 -9.284654,-9.46177 -9.284654,-9.46177 C 35.349387,45.51812 37.223097,45.20118 33.093477,40.91308 27.807936,35.43178 20.126656,29.8293 18.243624,22.222592 Z M 49.006032,58.57816 c 0,0 -0.932195,0 -0.932195,0 0,0 0.932195,0.9322 0.932195,0.9322 0,0 0,-0.9322 0,-0.9322 z m 88.558448,32.6268 c 0,0 -0.9322,0 -0.9322,0 0,0 0.9322,0.93219 0.9322,0.93219 0,0 0,-0.93219 0,-0.93219 z m -66.185789,59.66043 c 0,0 -0.932194,0 -0.932194,0 0,0 0.932194,0.93219 0.932194,0.93219 0,0 0,-0.93219 0,-0.93219 z m 205.082719,89.49064 c 0,0 -0.9322,0 -0.9322,0 0,0 0.9322,0.93219 0.9322,0.93219 0,0 0,-0.93219 0,-0.93219 z m -120.25305,40.08434 c 0,0 -1.86439,0 -1.86439,0 0,0 -1.86439,4.66098 -1.86439,4.66098 0,0 3.72878,-4.66098 3.72878,-4.66098 z m 225.59099,0 c 0.8949,3.33726 2.60082,4.16691 5.59316,5.59317 0,0 -5.59316,-5.59317 -5.59316,-5.59317 z m 6.52536,5.59317 c 0,0 -0.9322,0 -0.9322,0 0,0 0.9322,0.93219 0.9322,0.93219 0,0 0,-0.93219 0,-0.93219 z m -129.57499,52.20287 c 0,0 -0.9322,0 -0.9322,0 0,0 0.9322,0.9322 0.9322,0.9322 0,0 0,-0.9322 0,-0.9322 z m 20.50827,0 c 0,0 -0.93219,0 -0.93219,0 0,0 0.93219,0.9322 0.93219,0.9322 0,0 0,-0.9322 0,-0.9322 z m -92.28722,4.66097 c 0,0 -0.9322,0 -0.9322,0 0,0 0.9322,0.9322 0.9322,0.9322 0,0 0,-0.9322 0,-0.9322 z m 164.06617,0 c 0,0 -0.93219,0 -0.93219,0 0,0 0.93219,0.9322 0.93219,0.9322 0,0 0,-0.9322 0,-0.9322 z m -16.77949,36.35558 c 0,0 -0.9322,0 -0.9322,0 0,0 0.9322,0.93219 0.9322,0.93219 0,0 0,-0.93219 0,-0.93219 z" />
  <path
     style="fill:#636d8d;fill-opacity:1;stroke-width:0.60279"
     d="m 199.86617,398.29817 c -1.22546,-0.6472 -2.95097,-2.12447 -3.83449,-3.28281 -0.88352,-1.15837 -1.87653,-1.93914 -2.2067,-1.73508 -0.99963,0.61778 0.141,-2.3182 1.71925,-4.42534 0.79622,-1.06305 3.1878,-3.36872 5.31462,-5.12373 2.12683,-1.75497 3.88519,-3.37277 3.90747,-3.59507 0.0224,-0.22227 -0.70544,-0.54801 -1.61716,-0.72376 -0.91172,-0.17566 -3.23466,-0.62702 -5.16208,-1.00278 -1.94371,-0.37894 -3.6505,-1.06393 -3.83244,-1.53804 -0.95987,-2.5014 2.29627,-7.49934 7.23129,-11.09954 2.04504,-1.49192 5.07544,-4.19642 6.73422,-6.01001 1.65878,-1.81359 4.80588,-5.07581 6.99355,-7.24934 3.59994,-3.57672 6.11897,-7.88868 5.16552,-8.84211 -0.17615,-0.17624 -2.16978,1.15531 -4.43029,2.95882 -9.06004,7.22836 -12.61621,8.90637 -18.82346,8.88199 -4.0493,-0.0146 -7.97275,-1.64492 -9.47169,-3.93259 -1.21622,-1.85617 -1.43909,-5.79738 -0.34839,-6.16094 0.39784,-0.13254 0.72335,-0.88818 0.72335,-1.679 0,-1.42387 -0.0484,-1.43488 -4.97301,-1.13128 -7.94153,0.48958 -8.91358,0.70745 -13.46667,3.01848 -7.55475,3.83462 -8.8347,1.52245 -4.16371,-7.52145 3.15082,-6.10055 8.3133,-12.62196 12.11073,-15.29865 4.21863,-2.97355 3.81518,-3.80659 -4.12498,-8.51721 -8.39327,-4.97944 -8.48217,-5.04737 -9.70635,-7.41649 -1.36566,-2.64295 -3.293,-10.95295 -3.77566,-16.27932 -0.44059,-4.86213 -0.28933,-4.75175 -5.09847,-3.72036 -3.11636,0.66832 -3.6385,0.49223 -4.32824,-1.45979 -0.0952,-0.26946 -0.93525,-0.19984 -1.86685,0.15439 -1.68092,0.63908 -1.69059,0.62906 -1.27048,-1.31865 0.95002,-4.40445 3.00564,-8.68407 5.41592,-11.2754 2.01916,-2.17085 2.45254,-3.00526 2.07759,-4.00014 -0.36125,-0.9585 0.0256,-1.88831 1.62942,-3.91487 l 2.10319,-2.65778 -1.67357,-0.68406 c -1.10084,-0.44999 -1.93487,-1.43882 -2.43708,-2.88943 -0.89957,-2.59835 -0.47015,-4.07335 2.31509,-7.95169 1.04467,-1.45469 1.78592,-2.7394 1.64723,-2.85494 -0.13869,-0.11554 -2.28657,0.003 -4.77308,0.26314 -2.4865,0.26026 -9.32552,0.48996 -15.19781,0.51046 -9.22514,0.0322 -11.11073,-0.12506 -13.86762,-1.15654 -3.50297,-1.31063 -7.10191,-4.21648 -7.10191,-5.73422 0,-1.40874 1.68232,-4.45433 4.08386,-7.39327 l 2.09754,-2.56691 -1.58372,-2.39318 c -0.87106,-1.31624 -1.58374,-2.49937 -1.58374,-2.62915 0,-0.12978 1.22764,-0.5797 2.72808,-0.9998 1.50045,-0.4201 2.85847,-0.97478 3.01783,-1.23263 0.15938,-0.25787 -3.57738,-1.74962 -8.30387,-3.31502 -4.7265,-1.5654 -8.68145,-2.91954 -8.78878,-3.0092 -0.10732,-0.0897 0.20954,-0.94561 0.70417,-1.90209 0.87439,-1.69089 0.85058,-1.76064 -0.85974,-2.5177 -1.42477,-0.63066 -1.75904,-1.15219 -1.75904,-2.74444 0,-2.52746 -1.15652,-3.52706 -6.19629,-5.35555 -7.55466,-2.74092 -10.93763,-6.03732 -10.19307,-9.93222 0.17429,-0.91173 2.55753,-3.91174 5.63318,-7.091 2.93209,-3.03087 5.33108,-5.65967 5.33108,-5.84179 0,-0.1821 -2.23786,-0.43897 -4.97301,-0.57081 -4.87656,-0.23506 -11.3023,-2.27093 -11.3023,-3.58093 0,-1.2918 7.48428,-9.59971 10.24251,-11.36966 2.46332,-1.58071 4.20483,-2.12096 9.19585,-2.85275 6.58383,-0.96534 8.89273,-1.61275 8.89273,-2.49349 0,-0.77184 -2.75286,-1.16202 -11.45299,-1.6233 -7.00374,-0.37134 -7.87493,-0.55712 -12.35922,-2.63568 -3.32155,-1.5396 -6.84225,-2.58205 -11.302295,-3.34653 -6.453106,-1.1061 -6.477944,-1.11692 -6.477944,-2.82132 0,-1.42316 -0.253469,-1.71096 -1.50697,-1.71096 -0.828836,0 -1.506973,0.2808 -1.506973,0.624 0,0.43014 -0.362231,0.43014 -1.16595,0 -0.641273,-0.3432 -2.133176,-0.624 -3.315341,-0.624 -1.649576,0 -2.14939,-0.24662 -2.14939,-1.06057 0,-0.58332 0.55743,-1.40871 1.238731,-1.83418 3.120415,-1.94874 12.676225,-9.31115 12.418982,-9.56839 -0.158269,-0.15827 -3.205929,-1.14855 -6.77261,-2.20065 -6.344665,-1.87155 -8.28569,-3.16648 -5.743032,-3.8314 0.697999,-0.18254 1.269086,-0.67711 1.269086,-1.09907 0,-0.56043 -1.772262,-0.82786 -6.5759,-0.99228 -5.398396,-0.18478 -6.801584,-0.42932 -7.836258,-1.36568 -1.697601,-1.53632 -1.586431,-3.21321 0.425061,-6.41155 0.926979,-1.47392 2.668129,-4.44302 3.869217,-6.59799 1.20109,-2.15497 3.019575,-4.71483 4.041078,-5.68858 2.099168,-2.00102 2.617455,-5.16162 0.846422,-5.16162 -1.585342,0 -10.50242,-4.54725 -12.983516,-6.62092 -1.829672,-1.52934 -2.183627,-2.17098 -1.93231,-3.50294 0.255886,-1.35617 -0.0384,-1.851 -1.748282,-2.93967 C 39.709643,88.96166 30.600799,76.0569 30.600799,73.43936 c 0,-0.34255 0.390874,-0.62282 0.868609,-0.62282 1.278901,0 1.754147,-1.12849 0.905754,-2.15074 -1.257671,-1.5154 -0.426023,-1.43876 4.257556,0.39236 4.191277,1.63864 17.848232,4.45402 19.632184,4.04718 0.458425,-0.10456 -1.689287,-3.18849 -5.162209,-7.41251 -5.450253,-6.62899 -5.841622,-7.27278 -4.683339,-7.70393 0.725435,-0.27002 1.528543,-0.20584 1.885067,0.15069 1.023968,1.02397 1.585627,0.7102 1.585627,-0.88581 0,-1.0405 -0.330647,-1.50697 -1.068188,-1.50697 -1.658373,0 -10.677087,-9.52266 -12.063693,-12.73778 C 35.948002,43.1305 33.492619,40.17278 29.252,35.9672 23.595084,30.35702 19.104523,24.435769 19.902002,23.63829 c 0.510823,-0.510823 8.339481,2.686601 14.014137,5.72373 5.695155,3.0481 13.415608,7.80469 23.508773,14.48381 3.315338,2.19391 8.98366,5.74445 12.596266,7.89008 3.612606,2.14563 8.088315,5.35017 9.946018,7.12119 1.857704,1.77104 4.424724,3.60052 5.704484,4.06552 2.54686,0.92539 7.41022,3.74916 13.94846,8.09876 2.32074,1.54388 8.69524,5.33566 14.16555,8.42617 5.47031,3.09051 10.90488,6.52286 12.07684,7.62745 1.26671,1.1939 3.71119,2.53229 6.02789,3.30037 2.14338,0.71061 4.32531,1.66192 4.84871,2.11401 1.36487,1.1789 1.76091,1.02484 1.76091,-0.68499 0,-0.85741 -0.34804,-1.50697 -0.80743,-1.50697 -0.82656,0 -2.48702,-2.93438 -1.95915,-3.46224 0.73553,-0.73553 5.79401,2.51271 7.30218,4.68902 1.43882,2.07621 1.95751,2.38995 3.95112,2.38995 1.90858,0 2.95858,0.56306 6.23782,3.34504 4.96221,4.20975 8.03376,5.57076 13.66446,6.05477 3.92309,0.33723 5.3563,0.84515 11.84716,4.19858 4.0613,2.09822 7.38417,3.53285 7.38417,3.18807 0,-0.34479 -0.96793,-2.66662 -2.15097,-5.15963 -1.7746,-3.73962 -2.08184,-4.94189 -1.75592,-6.87104 0.21729,-1.28607 0.58017,-2.45272 0.80642,-2.59255 0.85316,-0.52728 6.9072,2.07957 10.50893,4.5251 12.31885,8.36435 19.0088,14.42552 27.79293,25.18073 9.81583,12.01842 11.16259,13.89389 11.97309,16.6735 0.43454,1.49023 2.02424,4.09086 3.65603,5.98096 2.86272,3.31587 4.02329,4.0583 4.02329,2.57373 0,-1.22641 4.03938,-9.32118 5.80935,-11.64173 3.27474,-4.29341 9.12146,-6.34786 11.27936,-3.9634 0.55014,0.60789 1.44855,3.34041 1.99648,6.07225 0.72355,3.60748 1.67151,6.06851 3.46339,8.99145 l 2.46717,4.02447 -1.3e-4,8.13765 c -2.7e-4,17.53772 -1.58698,53.88285 -2.51277,57.55753 -0.88168,3.49957 -0.87117,3.633 0.34987,4.44374 1.66791,1.10746 1.70525,3.70274 0.0532,3.70274 -1.59988,0 -1.50776,0.65219 0.89393,6.32928 1.95777,4.62778 1.99091,4.83037 0.82139,5.02189 -0.9736,0.15944 -1.14239,0.50354 -0.83934,1.71103 0.35747,1.42425 0.27215,1.48791 -1.47877,1.10334 -1.79618,-0.39451 -1.8443,-0.35108 -1.44358,1.30292 0.22798,0.94107 0.67627,2.38917 0.99617,3.218 0.3199,0.82883 0.82132,4.21952 1.11429,7.53486 0.29297,3.31533 0.78661,8.87608 1.09699,12.35719 0.31038,3.48108 1.1237,9.44871 1.80739,13.26133 0.68368,3.81266 1.24486,7.13553 1.24706,7.38419 0.002,0.24878 0.38653,0.45209 0.85407,0.45209 0.63529,0 0.95457,-1.33267 1.26367,-5.2744 0.22748,-2.90093 0.6887,-6.49507 1.02494,-7.98697 0.33625,-1.49189 0.7987,-5.44315 1.02769,-8.78052 0.33353,-4.86123 0.68179,-6.44081 1.75123,-7.94269 1.21921,-1.71221 1.27222,-2.10912 0.61154,-4.57933 -0.55904,-2.0902 -0.56121,-3.24585 -0.01,-5.0872 0.39261,-1.31043 0.71385,-3.40155 0.71385,-4.64694 0,-1.94439 0.12774,-2.1583 0.90418,-1.51392 0.7628,0.63307 0.90418,0.51422 0.90418,-0.76007 0,-2.16937 -2.17354,-2.6339 -3.19572,-0.68299 -0.67219,1.28292 -0.90154,1.36397 -1.86541,0.65916 -1.05142,-0.76882 -1.03091,-0.93795 0.4741,-3.90794 1.88081,-3.71161 1.99106,-6.06721 0.37981,-8.11557 -1.13723,-1.44576 -1.14805,-1.64971 -0.23042,-4.34275 1.05456,-3.09497 1.01623,-6.09748 -0.48521,-38.00504 -0.42122,-8.95142 -0.70528,-19.74233 -0.63124,-23.97982 0.13281,-7.60084 0.16567,-7.76714 2.44173,-12.35718 4.18267,-8.43501 5.20829,-11.52317 4.47351,-13.46982 -0.74257,-1.96728 -0.64702,-2.07452 2.34917,-2.63661 3.17961,-0.5965 7.16437,1.32775 9.56728,4.62006 1.04939,1.43781 3.12729,5.03149 4.61756,7.98596 2.03524,4.0349 2.85233,5.16002 3.28318,4.52092 0.31548,-0.46797 1.62635,-2.88526 2.91303,-5.37177 1.5253,-2.9476 6.37101,-9.45067 13.92408,-18.68646 11.19043,-13.68352 11.87402,-14.38829 20.08871,-20.71153 8.49236,-6.53701 13.13012,-9.34072 17.39518,-10.51614 l 2.26046,-0.62297 v 2.8901 c 0,2.01529 -0.63401,4.28133 -2.09453,7.48628 -1.15202,2.52789 -1.82562,4.59617 -1.49696,4.59617 0.32872,0 3.59111,-1.5013 7.24984,-3.33622 5.50656,-2.76163 7.50283,-3.44286 11.59124,-3.9555 5.93305,-0.74395 8.9672,-1.9976 12.17949,-5.03234 1.32494,-1.25171 4.45584,-3.30614 6.95759,-4.56539 2.50172,-1.25927 5.71465,-3.26376 7.13981,-4.45444 2.34732,-1.96114 4.90891,-2.86116 4.87489,-1.71279 -0.009,0.24866 -0.54385,1.13022 -1.1922,1.95906 -1.31302,1.67863 -1.5526,3.01394 -0.5407,3.01394 0.78072,0 12.30516,-6.47405 22.56194,-12.67457 3.96772,-2.39861 11.68974,-6.93806 17.16007,-10.08767 5.4703,-3.1496 13.47806,-8.23301 17.79501,-11.29647 4.31697,-3.06345 10.55583,-7.19212 13.86414,-9.1748 3.30833,-1.98269 12.64902,-7.85018 20.75706,-13.03886 10.34452,-6.61989 15.07737,-9.327516 15.86641,-9.077079 0.61849,0.196286 1.57975,-0.04171 2.13619,-0.528925 1.46206,-1.280179 4.32288,-2.628545 6.63289,-3.126232 l 2.00446,-0.431861 -0.97467,1.884796 c -0.53607,1.03664 -4.15454,5.199321 -8.04107,9.250401 -4.43952,4.62749 -7.95952,8.92721 -9.46886,11.56637 -1.4688,2.56825 -4.35901,6.12763 -7.43703,9.1589 l -5.03462,4.95812 3.09023,0.18434 3.0902,0.18435 -3.99927,4.52091 c -7.37699,8.33922 -9.46473,10.87784 -9.17994,11.16263 0.50263,0.50263 16.91997,-3.82933 21.80362,-5.75322 2.60459,-1.02607 4.87326,-1.72794 5.0415,-1.55972 0.16808,0.16823 -0.74218,1.26834 -2.0231,2.44472 l -2.32892,2.13888 2.31199,0.003 2.31199,0.003 -1.54837,2.77033 c -2.80935,5.02649 -14.31944,20.7479 -16.2506,22.19636 -2.39708,1.79795 -7.20605,4.18817 -10.33377,5.13625 -1.32613,0.40198 -2.79734,0.85545 -3.2693,1.00772 -0.60863,0.19634 -0.12672,1.02218 1.65765,2.84028 1.3837,1.40989 2.51582,2.80573 2.51582,3.10189 0,0.29616 1.59668,3.2697 3.54817,6.60786 4.2315,7.23821 4.68674,8.75889 3.17932,10.62046 -0.94199,1.16329 -1.91939,1.42389 -6.77736,1.80697 -3.12216,0.24622 -6.49038,0.79126 -7.48498,1.21123 l -1.80837,0.76359 2.56185,0.59084 c 1.40901,0.32495 2.56185,0.77913 2.56185,1.00928 0,0.23013 -3.32287,1.44504 -7.38416,2.69976 -4.06129,1.25473 -7.58047,2.45838 -7.82037,2.6748 -0.24004,0.21642 2.47262,2.12233 6.02787,4.23537 6.70931,3.98761 8.57388,5.32321 8.57388,6.14152 0,0.265 -1.83098,0.56203 -4.06884,0.66006 -3.92148,0.17178 -4.07561,0.23721 -4.25678,1.80711 -0.21586,1.87093 -0.13371,1.83964 -8.55249,3.25257 -4.27368,0.71726 -7.89544,1.77672 -11.1516,3.26216 -4.18378,1.90863 -6.03949,2.34508 -14.01484,3.29615 -11.17738,1.33293 -11.97799,2.20461 -3.01393,3.2815 9.37929,1.12677 12.3684,2.84525 18.6246,10.70755 3.48848,4.38403 3.54034,4.20192 -1.76913,6.21485 -2.07953,0.78839 -4.64589,1.20835 -7.38416,1.20835 -2.30832,0 -4.19692,0.17784 -4.19692,0.39522 0,0.21738 2.57694,3.05087 5.72651,6.29666 5.1304,5.28714 5.72648,6.13271 5.72648,8.12334 0,3.2967 -2.97239,5.83598 -9.09567,7.77032 -2.6569,0.83931 -5.7501,1.52603 -6.87378,1.52603 -1.12367,0 -2.18227,0.22524 -2.35242,0.50056 -0.17013,0.27532 0.0725,1.94885 0.53959,3.71896 0.46694,1.77009 0.73143,3.4086 0.58775,3.64109 -0.14362,0.2325 -1.12583,0.59564 -2.18253,0.80697 l -1.92129,0.38426 1.39369,1.48353 1.3937,1.48352 -1.44403,0.53948 c -0.79421,0.29672 -4.56345,1.67713 -8.37608,3.06758 -3.81265,1.39045 -7.16692,2.76066 -7.45395,3.04492 -0.29137,0.28855 1.10652,0.97375 3.16463,1.55122 2.02758,0.56891 3.68651,1.25253 3.68651,1.51917 0,0.26664 -1.08501,1.09461 -2.41115,1.83993 -1.32614,0.74533 -2.41115,1.52324 -2.41115,1.72869 0,0.20546 0.9825,1.30834 2.18337,2.45086 2.45678,2.33745 4.41424,6.09579 4.43408,8.51348 0.0116,1.46611 -0.44203,1.79135 -4.95978,3.5528 l -4.973,1.93894 -15.52182,-0.13243 c -8.53702,-0.0729 -15.52182,0.0519 -15.52182,0.27718 0,0.2253 0.97755,2.26989 2.17234,4.54355 l 2.1723,4.13397 -1.3735,3.82981 -1.37353,3.82981 3.39605,5.49014 c 2.43612,3.93826 3.75203,6.88429 4.65535,10.42227 0.69263,2.71269 1.13201,5.24264 0.97645,5.6221 -0.15556,0.37949 -0.3043,0.21528 -0.33046,-0.36492 -0.0262,-0.58018 -0.37879,-1.05487 -0.7836,-1.05487 -0.40481,0 -2.30357,-1.55123 -4.21953,-3.44717 -3.53069,-3.49384 -4.12896,-3.4066 -2.79906,0.40833 0.44104,1.26519 1.67355,2.60688 3.46602,3.77309 l 2.78161,1.80968 -2.71254,-0.3949 c -1.49192,-0.21732 -3.82766,-0.54938 -5.1905,-0.73815 l -2.47795,-0.34322 -0.29044,6.03066 c -0.24557,5.10258 -0.57088,6.6206 -2.11308,9.86427 -1.00249,2.10848 -1.99123,4.51174 -2.19719,5.34058 -0.27354,1.10019 -2.48846,2.88995 -8.20638,6.63065 -4.30756,2.81806 -7.83723,5.29799 -7.84376,5.51097 -0.006,0.21294 1.36139,1.43366 3.03975,2.71254 5.92923,4.51812 15.03209,18.10995 15.03209,22.44507 0,3.46348 -2.369,3.95877 -6.57038,1.37364 -3.90776,-2.40448 -6.12266,-2.96313 -13.06428,-3.29516 l -6.07189,-0.29044 1.16483,2.35438 c 2.9139,5.88947 -1.8745,10.78204 -10.55138,10.78096 -4.84179,-6.1e-4 -8.88234,-1.86774 -16.92815,-7.82241 -3.24934,-2.40483 -6.02236,-4.25798 -6.16225,-4.11806 -0.13983,0.13983 0.006,1.197 0.32405,2.34914 0.42287,1.53156 2.89001,4.35862 9.17619,10.5149 4.7288,4.63107 9.92058,9.47953 11.53732,10.77435 3.5018,2.80451 6.40428,8.24825 5.18263,9.72024 -1.1057,1.33229 -5.15568,2.20302 -8.15485,1.75329 -1.67419,-0.25111 -2.67986,-0.17246 -2.67986,0.20945 0,0.33629 1.77348,2.05037 3.94104,3.80901 4.6255,3.75288 6.62608,6.21545 7.83653,9.64625 l 0.88067,2.49607 -1.69992,-0.33999 c -1.41947,-0.28403 -1.8729,-0.0472 -2.74829,1.43477 -2.05814,3.48414 -5.50424,4.26558 -12.03485,2.72909 -3.43826,-0.80891 -3.77371,-1.08196 -13.87388,-11.29286 -14.50809,-14.66714 -26.72186,-29.96742 -28.38041,-35.55235 -0.49286,-1.65966 -1.99066,-5.00038 -3.32843,-7.42383 -1.33777,-2.42345 -2.43232,-4.9832 -2.43232,-5.68835 0,-0.96567 -0.37189,-1.28206 -1.50697,-1.28206 -1.52221,0 -2.01462,0.82068 -0.90418,1.50698 0.33153,0.2048 0.59416,0.96687 0.58362,1.69325 -0.0178,1.22342 -0.0779,1.24332 -0.8166,0.27034 -0.43857,-0.57767 -0.96574,-2.8529 -1.17147,-5.05603 -0.20573,-2.20316 -0.78767,-4.63698 -1.29318,-5.40848 -0.50551,-0.77151 -0.91946,-2.56512 -0.91988,-3.98581 -10e-4,-4.28755 -4.36275,-20.53529 -5.99692,-22.34031 -0.42234,-0.46651 -3.01715,10.03197 -4.54205,18.37693 -0.44163,2.41684 -1.37029,6.53988 -2.06369,9.16229 -0.69339,2.62244 -1.28213,5.33499 -1.30831,6.0279 -0.0262,0.69292 -0.1844,0.92078 -0.35162,0.50636 -0.16721,-0.41442 -0.95957,-0.75348 -1.76078,-0.75348 -1.47759,0 -1.95076,0.8291 -0.85843,1.50419 0.9421,0.58227 -1.50096,4.78901 -3.95683,6.81336 -1.6738,1.37968 -2.09552,2.09467 -1.79465,3.0426 0.65518,2.06429 -0.74099,5.80645 -3.63106,9.73233 -4.81769,6.54437 -14.63766,18.21144 -20.34249,24.16884 -3.04351,3.17824 -7.14952,7.62461 -9.12447,9.88087 -4.35372,4.97376 -8.05388,6.94343 -12.98588,6.91255 -2.09079,-0.0117 -4.1383,-0.4554 -5.54344,-1.19749 z m 57.7644,-78.79022 c -0.18417,-1.5748 -0.50164,-6.38956 -0.70553,-10.69951 -0.20389,-4.30995 -0.7568,-9.54842 -1.2287,-11.64109 -0.47191,-2.09266 -0.85802,-5.50371 -0.85802,-7.58015 0,-2.07641 -0.55304,-6.8466 -1.22898,-10.60047 -0.67593,-3.75383 -2.01777,-14.17677 -2.98184,-23.16209 -2.87772,-26.82058 -3.08189,-28.28403 -4.3109,-30.90035 -0.76934,-1.63779 -1.36372,-4.7742 -1.71348,-9.04183 -0.29454,-3.59381 -1.35502,-11.4168 -2.35662,-17.38441 -1.00159,-5.96761 -2.50983,-16.31528 -3.35164,-22.99482 -0.8418,-6.67954 -1.74696,-13.18966 -2.01145,-14.46694 L 236.40252,158.71398 215.93306,147.52 C 204.67486,141.36331 182.30773,128.75902 166.22833,119.51048 150.14893,110.26193 131.02545,99.68614 123.7317,96.00873 116.43796,92.33131 104.77399,86.24637 97.81178,82.48664 90.84956,78.7269 83.71322,74.88355 81.95322,73.94586 78.409995,72.05809 74.177257,70.63159 73.658455,71.1504 c -0.892266,0.89226 1.646136,10.91446 5.154866,20.3526 1.241455,3.33939 1.787786,5.71272 1.568816,6.81507 -0.231796,1.16686 0.198004,2.75575 1.385953,5.12371 0.94707,1.88778 3.27748,7.77242 5.17871,13.07696 1.90121,5.30455 4.04575,10.84055 4.76564,12.30223 l 1.30888,2.6576 17.16356,7.18868 c 9.43996,3.95378 26.27124,10.92858 37.40284,15.49955 11.13161,4.57098 25.10124,10.7191 31.04363,13.66249 9.46285,4.68714 10.93889,5.61358 11.88787,7.46138 1.64767,3.2083 8.80947,33.18968 8.27585,34.64513 -0.79531,2.16921 -3.66229,1.80807 -13.73912,-1.73065 -17.44508,-6.12625 -59.4279,-20.24342 -59.62259,-20.04873 -0.10578,0.10578 1.85537,7.35852 4.35811,16.11719 2.50275,8.75867 5.113,18.55349 5.80057,21.76628 1.95634,9.14148 3.5438,10.9557 10.53472,12.03955 3.90908,0.60605 8.16743,2.25186 8.9021,3.44056 0.18442,0.2984 2.0338,0.41545 4.10972,0.26009 3.08835,-0.23113 5.08922,0.10146 11.00788,1.82973 3.97841,1.1617 13.06545,3.63076 20.19343,5.48679 7.12798,1.85604 14.12007,3.67788 15.53796,4.04849 3.28743,0.85931 5.25721,3.19114 6.14283,7.27194 2.72778,12.56921 6.03322,38.49824 6.05368,47.48723 0.006,2.48649 0.17668,5.14211 0.38007,5.90132 0.51618,1.92694 3.00555,3.03919 8.48,3.78883 2.58308,0.35374 8.22283,1.41999 12.53277,2.36946 8.01742,1.76625 10.46488,2.12853 15.57838,2.30599 l 2.91982,0.10138 z m 35.78625,1.31597 c 4.14417,-0.51236 11.71672,-1.8657 16.82786,-3.00747 5.11115,-1.14176 9.38343,-2.07594 9.49392,-2.07594 0.11041,0 0.20101,-4.48342 0.20101,-9.96316 0,-15.54609 2.91626,-39.92051 5.56372,-46.50225 0.75261,-1.871 2.0987,-3.94263 2.9913,-4.60362 1.4517,-1.07494 10.32072,-3.60475 33.33883,-9.50955 3.97841,-1.02058 8.42046,-2.51134 9.87125,-3.31282 1.90763,-1.05385 3.5762,-1.45808 6.02787,-1.46032 3.60778,-0.003 16.36389,-2.49368 19.05607,-3.72032 2.05715,-0.9373 3.51583,-3.84739 4.78091,-9.53794 0.55277,-2.4865 3.06055,-12.19608 5.57287,-21.57683 2.5123,-9.38074 4.39467,-17.22906 4.18303,-17.44069 -0.21149,-0.21164 -0.70576,-0.0638 -1.0981,0.32851 -0.39231,0.39232 -1.21756,0.7133 -1.83389,0.7133 -0.61633,0 -0.96136,0.25764 -0.76673,0.57255 0.64723,1.04725 -2.07376,1.89815 -6.78106,2.12053 -4.71219,0.22262 -11.11766,2.37746 -49.86243,16.77411 -10.1039,3.75439 -10.83777,3.87532 -12.07334,1.98959 -0.95646,-1.45973 -0.87728,-2.04396 1.78233,-13.14986 3.99251,-16.6718 5.97296,-22.77617 8.00567,-24.67587 1.94815,-1.8207 12.47963,-6.53539 46.89173,-20.99229 24.70011,-10.37677 37.84949,-15.73622 40.68826,-16.58377 4.66584,-1.39305 7.89363,-3.4788 9.17983,-5.93186 0.72437,-1.38149 4.06845,-10.64945 7.43135,-20.59546 3.36286,-9.94602 7.10365,-20.8178 8.31282,-24.1595 2.24482,-6.20381 3.30053,-12.57979 2.32004,-14.01189 -0.42322,-0.61816 -4.20741,1.13609 -16.75859,7.76882 -8.91657,4.71201 -21.24809,11.34456 -27.40341,14.73902 -6.15532,3.39445 -14.36671,7.68102 -18.24756,9.52572 -8.47104,4.02659 -13.72647,7.14981 -16.97573,10.08842 -1.42468,1.28849 -3.63023,2.51317 -5.39094,2.99342 -1.63889,0.44704 -6.65711,3.03322 -11.1516,5.74709 -10.08327,6.08849 -45.42952,25.91073 -57.04844,31.99284 -4.72089,2.47125 -8.86296,4.82997 -9.20459,5.24161 -0.34163,0.41165 -1.19175,5.48647 -1.88917,11.27739 -0.6974,5.79092 -1.7839,13.51276 -2.41443,17.15963 -0.63053,3.64687 -1.32215,8.25821 -1.53693,10.24741 -0.21478,1.98921 -0.93435,7.00743 -1.59904,11.1516 -0.89031,5.55087 -1.10892,8.90503 -0.83025,12.73851 0.3018,4.15164 0.20843,5.26883 -0.46181,5.52603 -1.08687,0.41707 -2.56372,6.24035 -3.69956,14.58746 -7.19554,52.87937 -9.22307,72.92249 -7.97304,78.81734 0.46692,2.20188 0.54033,2.25472 2.71255,1.95258 1.22796,-0.17071 5.62333,-0.72974 9.76751,-1.24207 z M 155.24913,283.08033 c 2.37674,-3.09242 2.40168,-3.50716 0.21088,-3.50716 -1.47793,0 -1.86843,0.37172 -2.71255,2.58201 -1.1886,3.11231 -1.20901,3.44589 -0.21088,3.44589 0.42635,0 1.647,-1.13433 2.71255,-2.52074 z"
     id="path99" />
  <path
     style="fill:#50537f;fill-opacity:1;stroke-width:0.60279"
     d="m 282.34376,319.20656 c -1.13967,-4.25268 1.10398,-25.87318 7.74103,-74.59515 0.83551,-6.13338 1.52013,-11.32964 1.52138,-11.54725 10e-4,-0.21761 0.52206,-0.25974 1.15735,-0.0936 1.00648,0.2632 1.21074,-0.14344 1.58776,-3.16106 0.23797,-1.90472 0.26681,-5.42559 0.0641,-7.82416 -0.25475,-3.01362 -0.01,-6.57078 0.79215,-11.51301 0.63843,-3.93358 1.5758,-10.40702 2.08304,-14.38543 0.50724,-3.97841 1.30921,-9.40351 1.78214,-12.05578 0.47294,-2.65227 1.33909,-9.02677 1.92477,-14.16555 0.58569,-5.13877 1.34277,-9.70623 1.6824,-10.1499 0.33964,-0.44367 3.07355,-2.04016 6.07537,-3.54775 3.00182,-1.50759 10.33357,-5.44406 16.29275,-8.74771 8.91287,-4.94113 11.02324,-5.88899 11.89688,-5.34339 1.49828,0.93568 1.68119,0.85016 1.68119,-0.78597 0,-1.25904 1.68093,-2.39423 12.80928,-8.65058 7.04507,-3.96074 15.31641,-8.75921 18.38072,-10.66327 3.06427,-1.90406 7.36458,-4.08849 9.5562,-4.85431 2.19162,-0.76581 4.83833,-2.20375 5.88154,-3.19542 2.8654,-2.72381 8.32679,-5.99675 16.41093,-9.8349 4.00635,-1.90212 11.33105,-5.68944 16.27708,-8.41628 9.66894,-5.33063 43.71125,-23.46234 44.0506,-23.46234 0.88416,0 -0.20829,5.66857 -2.14915,11.1516 -5.91275,16.70384 -7.44481,21.17172 -10.64498,31.04363 -4.17289,12.87262 -5.53127,15.6979 -8.1966,17.04814 -1.10619,0.56039 -5.67319,2.40557 -10.1489,4.1004 -9.0224,3.41655 -58.48259,24.11441 -72.63607,30.39641 -4.97303,2.20726 -9.78701,4.71849 -10.69779,5.58051 -0.91076,0.86202 -2.20083,3.02366 -2.86679,4.80366 -1.82125,4.86772 -7.83444,29.86695 -7.83444,32.57089 0,3.29391 1.55776,4.61621 4.95823,4.20883 1.41714,-0.16978 14.10497,-4.57414 28.19517,-9.78746 23.86771,-8.83097 25.96871,-9.50015 30.74222,-9.7916 2.81806,-0.17205 5.89419,-0.70595 6.83585,-1.18645 1.58838,-0.81046 1.68859,-0.7942 1.38609,0.2249 -1.10794,3.73254 -7.70402,28.94865 -8.48665,32.44355 -1.45863,6.51368 -2.66425,9.26863 -4.46164,10.19535 -2.73148,1.40832 -17.57143,4.1348 -20.3972,3.74749 -1.42518,-0.19535 -2.71383,-0.0884 -2.91813,0.24211 -0.72661,1.17568 -4.32742,2.61462 -10.53681,4.21065 -21.48668,5.52286 -32.39023,8.57591 -34.01356,9.52397 -3.85903,2.25379 -5.48492,7.23364 -7.51466,23.0161 -1.72879,13.44223 -2.65662,26.26969 -2.37154,32.78734 l 0.24732,5.65761 -9.97097,2.17077 c -7.59156,1.65275 -22.54275,3.99064 -25.52082,3.99064 -0.15588,0 -0.447,-0.61033 -0.64691,-1.35626 z"
     id="path1323" />
  <path
     style="fill:#50537f;fill-opacity:1;stroke-width:0.60279"
     d="m 247.90625,320.16646 c -0.66307,-0.14099 -4.18939,-0.92147 -7.83626,-1.73415 -3.64687,-0.81267 -8.66509,-1.75593 -11.1516,-2.09613 -6.70133,-0.91684 -8.23449,-1.55277 -8.99362,-3.73038 -0.35805,-1.02714 -0.651,-4.68589 -0.651,-8.13059 0,-3.44469 -0.28983,-8.89714 -0.64405,-12.11653 -0.99565,-9.04906 -4.71385,-31.44312 -5.74793,-34.61882 -1.16181,-3.56789 -3.48107,-5.55099 -7.58762,-6.4878 -5.84839,-1.33419 -28.42703,-7.31505 -34.54492,-9.15063 -3.4332,-1.03008 -7.84417,-1.89317 -10.24741,-2.00511 -2.8743,-0.13389 -5.27649,-0.67571 -7.53487,-1.69954 -1.82343,-0.82666 -4.86106,-1.68309 -6.75029,-1.9032 -5.75705,-0.67073 -7.55495,-2.88862 -9.18547,-11.33119 -0.46325,-2.39863 -2.59015,-10.46438 -4.72644,-17.9239 -2.13629,-7.45951 -4.06098,-14.30161 -4.27708,-15.20467 -0.39105,-1.6341 -0.25729,-1.59576 28.0964,8.05331 37.89002,12.89438 38.77091,13.17925 40.75309,13.17925 2.1909,0 3.71013,-1.68043 3.71013,-4.1038 0,-1.83224 -7.1393,-31.4057 -8.32249,-34.47469 -0.31955,-0.82884 -1.09308,-1.96802 -1.71898,-2.53151 -2.33781,-2.10474 -22.91687,-11.55244 -44.20955,-20.2963 -12.10099,-4.96929 -28.78317,-11.87933 -37.07152,-15.35565 l -15.06973,-6.32059 -1.59132,-3.51721 c -0.87523,-1.93446 -2.86638,-7.17915 -4.42477,-11.65486 -1.55839,-4.47571 -3.62266,-9.80396 -4.58726,-11.84057 -0.9646,-2.0366 -1.75382,-4.71517 -1.75382,-5.95238 0,-1.23721 -1.049502,-5.13163 -2.332221,-8.65426 -2.468123,-6.77801 -4.653689,-14.99094 -4.128929,-15.5157 0.397238,-0.39723 2.775485,0.80806 24.69754,12.51664 9.86425,5.26851 21.9351,11.54111 26.82411,13.93912 4.88901,2.39802 21.77373,11.78943 37.5216,20.86981 15.74786,9.08039 37.71952,21.46544 48.82591,27.52235 11.10639,6.05691 20.62817,11.40334 21.15952,11.88097 0.69539,0.62508 1.34513,3.8068 2.31886,11.35531 0.74403,5.76779 2.28975,16.45451 3.43494,23.74826 1.14519,7.29374 2.44845,16.81726 2.89614,21.16337 0.48269,4.686 1.22059,8.68832 1.81307,9.83405 1.03427,2.00006 2.29467,11.18477 4.55593,33.19961 0.6981,6.79644 1.79495,15.32061 2.43744,18.94257 0.6425,3.62199 1.17139,8.50457 1.17533,10.85021 0.004,2.34564 0.4146,5.75672 0.91259,7.58015 0.73217,2.68088 2.00759,16.64439 2.07846,22.75528 0.0146,1.25905 -0.23269,1.35125 -3.4503,1.28634 -1.90632,-0.0385 -4.00854,-0.18527 -4.67161,-0.32644 z"
     id="path1584" />
</svg>
